B612Mono-Regular.ufo
<glyph name="quotedbl" format="2">
  <advance width="1300"/>
  <unicode hex="0022"/>
  <outline>
    <contour>
      <point x="525" y="1500" type="line" name="sh01"/>
      <point x="525" y="1400" type="line" name="mh01"/>
      <point x="525" y="1381"/>
      <point x="521" y="1333"/>
      <point x="514" y="1279"/>
      <point x="506" y="1223"/>
      <point x="502" y="1196" type="qcurve" name="mh02"/>
      <point x="481" y="1067" type="line"/>
      <point x="394" y="1067" type="line" name="sv01"/>
      <point x="372" y="1196" type="line"/>
      <point x="367" y="1223"/>
      <point x="359" y="1279"/>
      <point x="353" y="1333"/>
      <point x="350" y="1381"/>
      <point x="350" y="1400" type="qcurve"/>
      <point x="350" y="1500" type="line" name="ah01"/>
    </contour>
    <contour>
      <point x="826" y="1500" type="line" name="sh02"/>
      <point x="826" y="1400" type="line"/>
      <point x="826" y="1381"/>
      <point x="822" y="1333"/>
      <point x="815" y="1279"/>
      <point x="807" y="1223"/>
      <point x="803" y="1196" type="qcurve"/>
      <point x="782" y="1067" type="line" name="mh03"/>
      <point x="695" y="1067" type="line" name="sv02"/>
      <point x="673" y="1196" type="line"/>
      <point x="668" y="1223"/>
      <point x="660" y="1279"/>
      <point x="654" y="1333"/>
      <point x="651" y="1381"/>
      <point x="651" y="1400" type="qcurve" name="mh04"/>
      <point x="651" y="1500" type="line" name="ah02"/>
    </contour>
  </outline>
</glyph>
<glyph name="quotesingle" format="2">
  <advance width="1300"/>
  <unicode hex="0027"/>
  <outline>
    <contour>
      <point x="225" y="1500" type="line" name="dh01"/>
      <point x="400" y="1500" type="line" name="dh02"/>
      <point x="400" y="1400" type="line"/>
      <point x="400" y="1325"/>
      <point x="329" y="1155"/>
      <point x="259" y="1067" type="qcurve" name="av01"/>
      <point x="200" y="1067" type="line" name="sh01"/>
      <point x="209" y="1117"/>
      <point x="220" y="1205"/>
      <point x="224" y="1286" name="sh02"/>
      <point x="225" y="1362"/>
      <point x="225" y="1400" type="qcurve"/>
    </contour>
  </outline>
</glyph>
<glyph name="parenleft" format="2">
  <advance width="1300"/>
  <unicode hex="0028"/>
  <outline>
    <contour>
      <point x="500" y="1180" type="line" name="ah01"/>
      <point x="500" y="1269"/>
      <point x="518" y="1423"/>
      <point x="579" y="1536"/>
      <point x="698" y="1600"/>
      <point x="800" y="1600" type="qcurve" name="av01"/>
      <point x="819" y="1600"/>
      <point x="861" y="1597"/>
      <point x="898" y="1590"/>
      <point x="930" y="1581"/>
      <point x="939" y="1575" type="qcurve"/>
      <point x="870" y="1449" type="line"/>
      <point x="856" y="1451" type="line"/>
      <point x="849" y="1452"/>
      <point x="831" y="1454"/>
      <point x="820" y="1454" type="qcurve"/>
      <point x="776" y="1454"/>
      <point x="727" y="1412"/>
      <point x="704" y="1340"/>
      <point x="700" y="1246"/>
      <point x="700" y="1194" type="qcurve" name="sh01"/>
      <point x="700" y="-14" type="line" name="sh02"/>
      <point x="700" y="-66"/>
      <point x="704" y="-160"/>
      <point x="727" y="-232"/>
      <point x="776" y="-274"/>
      <point x="820" y="-274" type="qcurve"/>
      <point x="831" y="-274"/>
      <point x="849" y="-273"/>
      <point x="856" y="-272" type="qcurve"/>
      <point x="870" y="-269" type="line"/>
      <point x="939" y="-395" type="line"/>
      <point x="930" y="-401"/>
      <point x="898" y="-410"/>
      <point x="861" y="-417"/>
      <point x="819" y="-420"/>
      <point x="800" y="-420" type="qcurve" name="av02"/>
      <point x="698" y="-420"/>
      <point x="579" y="-356"/>
      <point x="518" y="-243"/>
      <point x="500" y="-89"/>
      <point x="500" y="0" type="qcurve" name="ah02"/>
    </contour>
  </outline>
</glyph>
<glyph name="parenright" format="2">
  <advance width="1300"/>
  <unicode hex="0029"/>
  <outline>
    <contour>
      <point x="899" y="0" type="line" name="ah02"/>
      <point x="899" y="-89"/>
      <point x="881" y="-243"/>
      <point x="820" y="-356"/>
      <point x="701" y="-420"/>
      <point x="599" y="-420" type="qcurve"/>
      <point x="579" y="-420" name="av02"/>
      <point x="538" y="-417"/>
      <point x="501" y="-410"/>
      <point x="469" y="-401"/>
      <point x="460" y="-395" type="qcurve"/>
      <point x="529" y="-269" type="line"/>
      <point x="543" y="-272" type="line"/>
      <point x="550" y="-273"/>
      <point x="568" y="-274"/>
      <point x="579" y="-274" type="qcurve"/>
      <point x="623" y="-274"/>
      <point x="672" y="-232"/>
      <point x="695" y="-160"/>
      <point x="699" y="-66"/>
      <point x="699" y="-14" type="qcurve" name="sh01"/>
      <point x="699" y="1194" type="line" name="sh02"/>
      <point x="699" y="1246"/>
      <point x="695" y="1340"/>
      <point x="672" y="1412"/>
      <point x="623" y="1454"/>
      <point x="579" y="1454" type="qcurve"/>
      <point x="568" y="1454"/>
      <point x="550" y="1452"/>
      <point x="543" y="1451" type="qcurve"/>
      <point x="529" y="1449" type="line"/>
      <point x="460" y="1575" type="line"/>
      <point x="469" y="1581"/>
      <point x="501" y="1590"/>
      <point x="538" y="1597"/>
      <point x="579" y="1600"/>
      <point x="599" y="1600" type="qcurve" name="av01"/>
      <point x="701" y="1600"/>
      <point x="820" y="1536"/>
      <point x="881" y="1423"/>
      <point x="899" y="1269"/>
      <point x="899" y="1180" type="qcurve" name="ah01"/>
    </contour>
  </outline>
</glyph>
<glyph name="plus" format="2">
  <advance width="1300"/>
  <unicode hex="002B"/>
  <outline>
    <contour>
      <point x="200" y="700" type="line" name="hr00"/>
      <point x="573" y="700" type="line"/>
      <point x="573" y="1121" type="line"/>
      <point x="728" y="1121" type="line"/>
      <point x="728" y="700" type="line"/>
      <point x="1100" y="700" type="line"/>
      <point x="1100" y="545" type="line"/>
      <point x="728" y="545" type="line"/>
      <point x="728" y="122" type="line"/>
      <point x="573" y="122" type="line"/>
      <point x="573" y="545" type="line"/>
      <point x="200" y="545" type="line"/>
    </contour>
  </outline>
</glyph>
<glyph name="comma" format="2">
  <advance width="1300"/>
  <unicode hex="002C"/>
  <outline>
    <contour>
      <point x="502" y="127" type="qcurve" name="ah01"/>
      <point x="502" y="156"/>
      <point x="525" y="209"/>
      <point x="566" y="247"/>
      <point x="620" y="271"/>
      <point x="650" y="271" type="qcurve" name="av01"/>
      <point x="679" y="271"/>
      <point x="732" y="250"/>
      <point x="773" y="210"/>
      <point x="798" y="149"/>
      <point x="798" y="110" type="qcurve" name="ah02"/>
      <point x="798" y="57"/>
      <point x="785" y="-42"/>
      <point x="744" y="-144"/>
      <point x="668" y="-250"/>
      <point x="606" y="-307" type="qcurve"/>
      <point x="554" y="-284" type="line"/>
      <point x="577" y="-240"/>
      <point x="595" y="-193" type="qcurve"/>
      <point x="610" y="-154"/>
      <point x="635" y="-61"/>
      <point x="635" y="-17" type="qcurve" name="ab01"/>
      <point x="610" y="-16"/>
      <point x="562" y="4"/>
      <point x="524" y="39"/>
      <point x="502" y="93"/>
    </contour>
  </outline>
</glyph>
<glyph name="hyphen" format="2">
  <advance width="1300"/>
  <unicode hex="002D"/>
  <outline>
    <contour>
      <point x="400" y="600" type="line" name="hr00"/>
      <point x="900" y="600" type="line" name="dv02"/>
      <point x="900" y="445" type="line" name="dv01"/>
      <point x="400" y="445" type="line"/>
    </contour>
  </outline>
</glyph>
<glyph name="period" format="2">
  <advance width="1300"/>
  <unicode hex="002E"/>
  <outline>
    <contour>
      <point x="486" y="150" type="curve" smooth="yes"/>
      <point x="486" y="59"/>
      <point x="560" y="-17"/>
      <point x="652" y="-17" type="curve" smooth="yes"/>
      <point x="742" y="-17"/>
      <point x="815" y="59"/>
      <point x="815" y="150" type="curve" smooth="yes"/>
      <point x="815" y="241"/>
      <point x="741" y="315"/>
      <point x="650" y="315" type="curve" smooth="yes"/>
      <point x="560" y="315"/>
      <point x="486" y="241"/>
    </contour>
  </outline>
</glyph>
<glyph name="zero" format="2">
  <advance width="1300"/>
  <unicode hex="0030"/>
  <outline>
    <contour>
      <point x="651" y="-17" type="qcurve" name="ab01"/>
      <point x="566" y="-17"/>
      <point x="424" y="48"/>
      <point x="311" y="160"/>
      <point x="226" y="310"/>
      <point x="169" y="481"/>
      <point x="141" y="663"/>
      <point x="141" y="750" type="qcurve" name="sh01"/>
      <point x="141" y="840"/>
      <point x="165" y="1024"/>
      <point x="217" y="1194"/>
      <point x="298" y="1343"/>
      <point x="411" y="1453"/>
      <point x="558" y="1517"/>
      <point x="651" y="1517" type="qcurve" name="at01"/>
      <point x="736" y="1517"/>
      <point x="878" y="1452"/>
      <point x="991" y="1340"/>
      <point x="1076" y="1190"/>
      <point x="1133" y="1019"/>
      <point x="1161" y="837"/>
      <point x="1161" y="750" type="qcurve" name="sh02"/>
      <point x="1161" y="660"/>
      <point x="1137" y="476"/>
      <point x="1085" y="306"/>
      <point x="1004" y="157"/>
      <point x="891" y="47"/>
      <point x="743" y="-17"/>
    </contour>
    <contour>
      <point x="348" y="793" type="qcurve" name="sh03"/>
      <point x="348" y="735"/>
      <point x="356" y="596"/>
      <point x="380" y="455"/>
      <point x="423" y="323"/>
      <point x="492" y="220"/>
      <point x="591" y="158"/>
      <point x="659" y="158" type="qcurve" name="sv01"/>
      <point x="720" y="158"/>
      <point x="811" y="205"/>
      <point x="877" y="286"/>
      <point x="919" y="393"/>
      <point x="944" y="515"/>
      <point x="954" y="645"/>
      <point x="954" y="707" type="qcurve" name="ah01"/>
      <point x="954" y="765"/>
      <point x="946" y="904"/>
      <point x="922" y="1044"/>
      <point x="879" y="1177"/>
      <point x="810" y="1279"/>
      <point x="711" y="1341"/>
      <point x="643" y="1341" type="qcurve" name="sv02"/>
      <point x="582" y="1341"/>
      <point x="491" y="1294"/>
      <point x="425" y="1214"/>
      <point x="383" y="1106"/>
      <point x="358" y="984"/>
      <point x="348" y="855"/>
    </contour>
  </outline>
</glyph>
<glyph name="one" format="2">
  <advance width="1300"/>
  <unicode hex="0031"/>
  <outline>
    <contour>
      <point x="238" y="0" type="line" name="ab01"/>
      <point x="238" y="160" type="line" name="sh01"/>
      <point x="583" y="160" type="line" name="dh01"/>
      <point x="583" y="1126" type="line"/>
      <point x="641" y="1353" type="line" name="ih01"/>
      <point x="505" y="1167" type="line" name="fh01"/>
      <point x="293" y="979" type="line" name="fh02"/>
      <point x="185" y="1100" type="line" name="fh03"/>
      <point x="643" y="1520" type="line" name="at01"/>
      <point x="793" y="1500" type="line"/>
      <point x="793" y="160" type="line" name="dh02"/>
      <point x="1138" y="160" type="line" name="sh02"/>
      <point x="1138" y="0" type="line" name="ab02"/>
    </contour>
  </outline>
</glyph>
<glyph name="three" format="2">
  <advance width="1300"/>
  <unicode hex="0033"/>
  <outline>
    <contour>
      <point x="227" y="1340" type="line" name="sv01"/>
      <point x="242" y="1500" type="line" name="at01"/>
      <point x="1022" y="1500" type="line"/>
      <point x="1022" y="1360" type="line"/>
      <point x="1010" y="1320"/>
      <point x="953" y="1233"/>
      <point x="876" y="1144"/>
      <point x="785" y="1058"/>
      <point x="739" y="1019" type="qcurve"/>
      <point x="607" y="945" type="line"/>
      <point x="617" y="947"/>
      <point x="648" y="948"/>
      <point x="662" y="948" type="qcurve" name="dv02"/>
      <point x="759" y="948"/>
      <point x="926" y="900"/>
      <point x="1049" y="803"/>
      <point x="1120" y="654"/>
      <point x="1120" y="553" type="qcurve" name="dh04"/>
      <point x="1120" y="456"/>
      <point x="1048" y="298"/>
      <point x="923" y="175"/>
      <point x="755" y="86"/>
      <point x="564" y="28"/>
      <point x="360" y="0"/>
      <point x="262" y="0" type="qcurve" name="ab01"/>
      <point x="262" y="160" type="line" name="dh01"/>
      <point x="345" y="163"/>
      <point x="505" y="187"/>
      <point x="649" y="230"/>
      <point x="771" y="292"/>
      <point x="860" y="375"/>
      <point x="910" y="480"/>
      <point x="910" y="543" type="qcurve" name="dh03"/>
      <point x="910" y="615"/>
      <point x="849" y="711"/>
      <point x="743" y="767"/>
      <point x="600" y="790"/>
      <point x="518" y="790" type="qcurve" name="dv01"/>
      <point x="486" y="790"/>
      <point x="411" y="787"/>
      <point x="381" y="785" type="qcurve" name="dh02"/>
      <point x="381" y="940" type="line"/>
      <point x="422" y="970"/>
      <point x="518" y="1046"/>
      <point x="616" y="1129"/>
      <point x="709" y="1214"/>
      <point x="785" y="1291"/>
      <point x="837" y="1358"/>
      <point x="845" y="1380" type="qcurve" name="iv01"/>
      <point x="693" y="1340" type="line"/>
    </contour>
  </outline>
</glyph>
<glyph name="five" format="2">
  <advance width="1300"/>
  <unicode hex="0035"/>
  <outline>
    <contour>
      <point x="456" y="982" type="line" name="hr00"/>
      <point x="463" y="986"/>
      <point x="498" y="1004"/>
      <point x="550" y="1022"/>
      <point x="617" y="1035"/>
      <point x="658" y="1035" type="qcurve" name="dv01"/>
      <point x="762" y="1035"/>
      <point x="925" y="970"/>
      <point x="1038" y="857"/>
      <point x="1097" y="705"/>
      <point x="1097" y="619" type="qcurve" name="dh02"/>
      <point x="1097" y="518"/>
      <point x="1025" y="347"/>
      <point x="900" y="210"/>
      <point x="733" y="106"/>
      <point x="544" y="35"/>
      <point x="344" y="0"/>
      <point x="248" y="0" type="qcurve" name="av01"/>
      <point x="248" y="160" type="line" name="sh01"/>
      <point x="323" y="162"/>
      <point x="477" y="194"/>
      <point x="620" y="250"/>
      <point x="745" y="328"/>
      <point x="838" y="424"/>
      <point x="892" y="536"/>
      <point x="892" y="598" type="qcurve" name="dh01"/>
      <point x="892" y="649"/>
      <point x="859" y="745"/>
      <point x="794" y="820"/>
      <point x="696" y="866"/>
      <point x="631" y="866" type="qcurve" name="dv02"/>
      <point x="580" y="866"/>
      <point x="498" y="853"/>
      <point x="434" y="833"/>
      <point x="387" y="810"/>
      <point x="372" y="800" type="qcurve"/>
      <point x="248" y="800" type="line" name="sh02"/>
      <point x="248" y="1500" type="line" name="at01"/>
      <point x="1001" y="1500" type="line" name="at02"/>
      <point x="1001" y="1340" type="line" name="sv01"/>
      <point x="456" y="1340" type="line" name="sh03"/>
    </contour>
  </outline>
</glyph>
<glyph name="nine" format="2">
  <advance width="1300"/>
  <unicode hex="0039"/>
  <outline>
    <contour>
      <point x="869" y="663" type="line" name="hr00"/>
      <point x="810" y="617"/>
      <point x="691" y="573"/>
      <point x="616" y="573" type="qcurve" name="dv01"/>
      <point x="518" y="573"/>
      <point x="348" y="638"/>
      <point x="222" y="758"/>
      <point x="150" y="927"/>
      <point x="150" y="1031" type="qcurve" name="dh02"/>
      <point x="150" y="1139"/>
      <point x="219" y="1317"/>
      <point x="346" y="1446"/>
      <point x="527" y="1517"/>
      <point x="639" y="1517" type="qcurve" name="at01"/>
      <point x="739" y="1517"/>
      <point x="892" y="1455"/>
      <point x="1004" y="1353"/>
      <point x="1079" y="1221"/>
      <point x="1124" y="1079"/>
      <point x="1143" y="939"/>
      <point x="1143" y="880" type="qcurve" name="sh01"/>
      <point x="1143" y="764"/>
      <point x="1096" y="543"/>
      <point x="1005" y="347"/>
      <point x="873" y="182"/>
      <point x="704" y="60"/>
      <point x="500" y="-12"/>
      <point x="382" y="-17" type="qcurve" name="ab01"/>
      <point x="351" y="150" type="line" name="sh02"/>
      <point x="471" y="156"/>
      <point x="682" y="258"/>
      <point x="843" y="427"/>
      <point x="942" y="652"/>
      <point x="949" y="780" type="qcurve" name="sh03"/>
    </contour>
    <contour>
      <point x="937" y="953" type="qcurve" name="ah01"/>
      <point x="934" y="1028"/>
      <point x="897" y="1169"/>
      <point x="825" y="1280"/>
      <point x="719" y="1347"/>
      <point x="647" y="1347" type="qcurve" name="sv01"/>
      <point x="579" y="1347"/>
      <point x="471" y="1303"/>
      <point x="395" y="1225"/>
      <point x="354" y="1115"/>
      <point x="354" y="1049" type="qcurve" name="dh01"/>
      <point x="354" y="984"/>
      <point x="387" y="872"/>
      <point x="454" y="790"/>
      <point x="557" y="743"/>
      <point x="626" y="743" type="qcurve" name="dv02"/>
      <point x="679" y="743"/>
      <point x="776" y="777"/>
      <point x="857" y="834"/>
      <point x="919" y="910"/>
    </contour>
  </outline>
</glyph>
<glyph name="colon" format="2">
  <advance width="1300"/>
  <unicode hex="003A"/>
  <outline>
    <contour>
      <point x="502" y="647" type="curve" smooth="yes"/>
      <point x="502" y="564"/>
      <point x="569" y="497"/>
      <point x="652" y="497" type="curve" smooth="yes"/>
      <point x="732" y="497"/>
      <point x="798" y="564"/>
      <point x="798" y="647" type="curve" smooth="yes"/>
      <point x="798" y="730"/>
      <point x="733" y="795"/>
      <point x="650" y="795" type="curve" smooth="yes"/>
      <point x="569" y="795"/>
      <point x="502" y="730"/>
    </contour>
    <contour>
      <point x="502" y="133" type="curve" smooth="yes"/>
      <point x="502" y="50"/>
      <point x="569" y="-17"/>
      <point x="652" y="-17" type="curve" smooth="yes"/>
      <point x="732" y="-17"/>
      <point x="798" y="50"/>
      <point x="798" y="133" type="curve" smooth="yes"/>
      <point x="798" y="216"/>
      <point x="733" y="281"/>
      <point x="650" y="281" type="curve" smooth="yes"/>
      <point x="569" y="281"/>
      <point x="502" y="216"/>
    </contour>
  </outline>
</glyph>
<glyph name="semicolon" format="2">
  <advance width="1300"/>
  <unicode hex="003B"/>
  <outline>
    <contour>
      <point x="502" y="641" type="qcurve" name="ah01"/>
      <point x="502" y="672"/>
      <point x="526" y="726"/>
      <point x="566" y="766"/>
      <point x="619" y="789"/>
      <point x="650" y="789" type="qcurve" name="av01"/>
      <point x="681" y="789"/>
      <point x="735" y="766"/>
      <point x="775" y="726"/>
      <point x="798" y="672"/>
      <point x="798" y="641" type="qcurve" name="ah02"/>
      <point x="798" y="610"/>
      <point x="775" y="555"/>
      <point x="735" y="515"/>
      <point x="682" y="491"/>
      <point x="652" y="491" type="qcurve" name="av02"/>
      <point x="621" y="491"/>
      <point x="566" y="515"/>
      <point x="526" y="555"/>
      <point x="502" y="610"/>
    </contour>
    <contour>
      <point x="502" y="127" type="qcurve" name="ah03"/>
      <point x="502" y="156"/>
      <point x="525" y="209"/>
      <point x="566" y="247"/>
      <point x="620" y="271"/>
      <point x="650" y="271" type="qcurve" name="av03"/>
      <point x="679" y="271"/>
      <point x="732" y="250"/>
      <point x="773" y="210"/>
      <point x="798" y="149"/>
      <point x="798" y="110" type="qcurve" name="ah04"/>
      <point x="798" y="57"/>
      <point x="785" y="-42"/>
      <point x="744" y="-144"/>
      <point x="668" y="-250"/>
      <point x="606" y="-307" type="qcurve"/>
      <point x="554" y="-284" type="line"/>
      <point x="577" y="-240"/>
      <point x="595" y="-193" type="qcurve"/>
      <point x="610" y="-154"/>
      <point x="635" y="-61"/>
      <point x="635" y="-17" type="qcurve" name="ab01"/>
      <point x="610" y="-16"/>
      <point x="562" y="4"/>
      <point x="524" y="39"/>
      <point x="502" y="93"/>
    </contour>
  </outline>
</glyph>
<glyph name="equal" format="2">
  <advance width="1300"/>
  <unicode hex="003D"/>
  <outline>
    <contour>
      <point x="200" y="700" type="line" name="hr00"/>
      <point x="1000" y="700" type="line" name="sv01"/>
      <point x="1000" y="560" type="line"/>
      <point x="200" y="560" type="line" name="av01"/>
    </contour>
    <contour>
      <point x="200" y="400" type="line"/>
      <point x="1000" y="400" type="line" name="sv02"/>
      <point x="1000" y="260" type="line"/>
      <point x="200" y="260" type="line" name="av02"/>
    </contour>
  </outline>
</glyph>
<glyph name="E" format="2">
  <advance width="1300"/>
  <unicode hex="0045"/>
  <outline>
    <contour>
      <point x="1135" y="160" type="line" name="dh04"/>
      <point x="1115" y="0" type="line" name="ab01"/>
      <point x="195" y="0" type="line" name="ab02"/>
      <point x="210" y="200" type="line" name="dh01"/>
      <point x="210" y="1290" type="line"/>
      <point x="180" y="1500" type="line" name="at01"/>
      <point x="1100" y="1500" type="line" name="at02"/>
      <point x="1100" y="1340" type="line"/>
      <point x="375" y="1340" type="line" name="sv01"/>
      <point x="395" y="1150" type="line" name="sh01"/>
      <point x="395" y="885" type="line"/>
      <point x="1030" y="885" type="line" name="dv01"/>
      <point x="1030" y="740" type="line" name="dh03"/>
      <point x="395" y="740" type="line"/>
      <point x="395" y="340" type="line" name="dh02"/>
      <point x="385" y="160" type="line"/>
    </contour>
  </outline>
</glyph>
<glyph name="F" format="2">
  <advance width="1300"/>
  <unicode hex="0046"/>
  <outline>
    <contour>
      <point x="395" y="0" type="line" name="dh02"/>
      <point x="205" y="0" type="line" name="dh01"/>
      <point x="205" y="1290" type="line"/>
      <point x="175" y="1500" type="line" name="at01"/>
      <point x="1120" y="1500" type="line" name="dh04"/>
      <point x="1100" y="1340" type="line" name="sv01"/>
      <point x="375" y="1340" type="line"/>
      <point x="395" y="1150" type="line" name="sh01"/>
      <point x="395" y="885" type="line"/>
      <point x="1015" y="885" type="line" name="dh03"/>
      <point x="1015" y="740" type="line" name="dv01"/>
      <point x="395" y="740" type="line"/>
    </contour>
  </outline>
</glyph>
<glyph name="G" format="2">
  <advance width="1300"/>
  <unicode hex="0047"/>
  <outline>
    <contour>
      <point x="1190" y="197" type="line" name="sh01"/>
      <point x="1149" y="152"/>
      <point x="1047" y="73"/>
      <point x="925" y="16"/>
      <point x="781" y="-17"/>
      <point x="698" y="-17" type="qcurve" name="ab01"/>
      <point x="554" y="-17"/>
      <point x="339" y="108"/>
      <point x="198" y="322"/>
      <point x="128" y="608"/>
      <point x="128" y="770" type="qcurve" name="sh02"/>
      <point x="128" y="871"/>
      <point x="155" y="1060"/>
      <point x="213" y="1226"/>
      <point x="306" y="1363"/>
      <point x="438" y="1462"/>
      <point x="611" y="1517"/>
      <point x="721" y="1517" type="qcurve" name="at01"/>
      <point x="836" y="1517"/>
      <point x="1041" y="1444"/>
      <point x="1113" y="1375" type="qcurve" name="fh01"/>
      <point x="1023" y="1268" type="line"/>
      <point x="975" y="1300"/>
      <point x="831" y="1348"/>
      <point x="737" y="1348" type="qcurve" name="sv01"/>
      <point x="656" y="1348"/>
      <point x="534" y="1306"/>
      <point x="445" y="1230"/>
      <point x="387" y="1125"/>
      <point x="352" y="997"/>
      <point x="338" y="851"/>
      <point x="338" y="773" type="qcurve" name="sh03"/>
      <point x="338" y="704"/>
      <point x="353" y="559"/>
      <point x="387" y="421"/>
      <point x="445" y="299"/>
      <point x="530" y="207"/>
      <point x="647" y="153"/>
      <point x="724" y="153" type="qcurve" name="sv02"/>
      <point x="769" y="153"/>
      <point x="857" y="173"/>
      <point x="935" y="205"/>
      <point x="996" y="244"/>
      <point x="1014" y="263" type="qcurve" name="ah01"/>
      <point x="1014" y="612" type="line" name="sv03"/>
      <point x="700" y="632" type="line"/>
      <point x="700" y="762" type="line"/>
      <point x="1190" y="762" type="line" name="av01"/>
    </contour>
  </outline>
</glyph>
<glyph name="H" format="2">
  <advance width="1300"/>
  <unicode hex="0048"/>
  <outline>
    <contour>
      <point x="946" y="0" type="line" name="ah01"/>
      <point x="946" y="725" type="line" name="dv01"/>
      <point x="378" y="725" type="line"/>
      <point x="378" y="0" type="line" name="sh02"/>
      <point x="188" y="0" type="line" name="sh01"/>
      <point x="188" y="1290" type="line"/>
      <point x="159" y="1500" type="line"/>
      <point x="378" y="1520" type="line" name="sh03"/>
      <point x="378" y="885" type="line"/>
      <point x="946" y="885" type="line" name="sh04"/>
      <point x="946" y="1500" type="line"/>
      <point x="1136" y="1520" type="line" name="at01"/>
      <point x="1136" y="0" type="line" name="sh05"/>
    </contour>
  </outline>
</glyph>
<glyph name="J" format="2">
  <advance width="1300"/>
  <unicode hex="004A"/>
  <outline>
    <contour>
      <point x="390" y="1500" type="line" name="hr00"/>
      <point x="1090" y="1500" type="line" name="ah01"/>
      <point x="1090" y="430" type="line" name="dh02"/>
      <point x="1090" y="333"/>
      <point x="1042" y="175"/>
      <point x="990" y="112" type="qcurve"/>
      <point x="938" y="49"/>
      <point x="770" y="-17"/>
      <point x="648" y="-17" type="qcurve" name="ab01"/>
      <point x="570" y="-17"/>
      <point x="447" y="20"/>
      <point x="349" y="79"/>
      <point x="272" y="149"/>
      <point x="240" y="182" type="qcurve" name="dv01"/>
      <point x="342" y="300" type="line" name="dv02"/>
      <point x="352" y="290"/>
      <point x="406" y="245"/>
      <point x="484" y="200"/>
      <point x="582" y="166"/>
      <point x="638" y="166" type="qcurve" name="sv01"/>
      <point x="767" y="166"/>
      <point x="910" y="312"/>
      <point x="910" y="470" type="qcurve" name="dh01"/>
      <point x="910" y="1148" type="line"/>
      <point x="930" y="1340" type="line"/>
      <point x="410" y="1340" type="line" name="sh01"/>
    </contour>
  </outline>
</glyph>
<glyph name="M" format="2">
  <advance width="1300"/>
  <unicode hex="004D"/>
  <outline>
    <contour>
      <point x="973" y="0" type="line" name="sh01"/>
      <point x="973" y="901" type="line" name="fh01"/>
      <point x="1032" y="1399" type="line" name="fh02"/>
      <point x="1027" y="1400" type="line" name="ih01"/>
      <point x="873" y="921" type="line" name="ih03"/>
      <point x="700" y="500" type="line" name="fh03"/>
      <point x="600" y="500" type="line" name="fh04"/>
      <point x="424" y="920" type="line" name="ih06"/>
      <point x="260" y="1400" type="line" name="ih04"/>
      <point x="254" y="1399" type="line" name="fh05"/>
      <point x="328" y="901" type="line" name="fv01"/>
      <point x="328" y="0" type="line" name="dh01"/>
      <point x="148" y="0" type="line" name="dh02"/>
      <point x="148" y="1290" type="line"/>
      <point x="120" y="1500" type="line" name="ih05"/>
      <point x="334" y="1520" type="line" name="sh02"/>
      <point x="580" y="950" type="line" name="fh06"/>
      <point x="651" y="700" type="line" name="ah01"/>
      <point x="720" y="950" type="line" name="fh07"/>
      <point x="946" y="1500" type="line" name="sh03"/>
      <point x="1153" y="1520" type="line" name="ih02"/>
      <point x="1153" y="0" type="line" name="ah02"/>
    </contour>
  </outline>
  <guideline angle="0" color="1,0,0,1" x="0" y="1287"/>
</glyph>
<glyph name="N" format="2">
  <advance width="1300"/>
  <unicode hex="004E"/>
  <outline>
    <contour>
      <point x="945" y="0" type="line" name="ah01"/>
      <point x="450" y="948" type="line" name="ih03"/>
      <point x="291" y="1361" type="line" name="ih01"/>
      <point x="285" y="1360" type="line" name="fv01"/>
      <point x="350" y="920" type="line" name="fv02"/>
      <point x="350" y="0" type="line" name="sh02"/>
      <point x="170" y="0" type="line" name="sh01"/>
      <point x="170" y="1290" type="line"/>
      <point x="140" y="1500" type="line" name="ih02"/>
      <point x="341" y="1520" type="line" name="at01"/>
      <point x="837" y="557" type="line" name="ih05"/>
      <point x="1003" y="140" type="line" name="ih04"/>
      <point x="1009" y="141" type="line"/>
      <point x="930" y="580" type="line" name="sh04"/>
      <point x="930" y="1500" type="line"/>
      <point x="1110" y="1520" type="line" name="at02"/>
      <point x="1110" y="0" type="line" name="sh03"/>
    </contour>
  </outline>
</glyph>
<glyph name="R" format="2">
  <advance width="1300"/>
  <unicode hex="0052"/>
  <outline>
    <contour>
      <point x="392" y="614" type="line" name="dv02"/>
      <point x="392" y="0" type="line" name="sh02"/>
      <point x="209" y="0" type="line" name="sh01"/>
      <point x="209" y="1290" type="line"/>
      <point x="174" y="1490" type="line"/>
      <point x="241" y="1498"/>
      <point x="402" y="1512"/>
      <point x="489" y="1512" type="qcurve" name="at01"/>
      <point x="615" y="1512"/>
      <point x="829" y="1459"/>
      <point x="985" y="1355"/>
      <point x="1073" y="1200"/>
      <point x="1073" y="1099" type="qcurve" name="sh03"/>
      <point x="1073" y="994"/>
      <point x="1001" y="834"/>
      <point x="877" y="721"/>
      <point x="707" y="650"/>
      <point x="610" y="633" type="qcurve" name="ih01"/>
      <point x="752" y="593" type="line"/>
      <point x="1155" y="0" type="line" name="ab01"/>
      <point x="932" y="0" type="line"/>
      <point x="529" y="595" type="line"/>
      <point x="518" y="609"/>
      <point x="490" y="614"/>
      <point x="482" y="614" type="qcurve"/>
    </contour>
    <contour>
      <point x="392" y="1147" type="line" name="sh04"/>
      <point x="392" y="765" type="line" name="dv01"/>
      <point x="510" y="765" type="line"/>
      <point x="601" y="765"/>
      <point x="741" y="816"/>
      <point x="837" y="903"/>
      <point x="887" y="1018"/>
      <point x="887" y="1083" type="qcurve" name="ah01"/>
      <point x="887" y="1140"/>
      <point x="855" y="1228"/>
      <point x="799" y="1292"/>
      <point x="725" y="1337"/>
      <point x="642" y="1363"/>
      <point x="555" y="1375"/>
      <point x="514" y="1375" type="qcurve" name="sv01"/>
      <point x="472" y="1375"/>
      <point x="405" y="1370"/>
      <point x="372" y="1364" type="qcurve" name="sv02"/>
    </contour>
  </outline>
</glyph>
<glyph name="T" format="2">
  <advance width="1300"/>
  <unicode hex="0054"/>
  <outline>
    <contour>
      <point x="555" y="0" type="line" name="dh01"/>
      <point x="555" y="1340" type="line" name="sv01"/>
      <point x="130" y="1340" type="line"/>
      <point x="130" y="1500" type="line" name="at01"/>
      <point x="1165" y="1500" type="line"/>
      <point x="1165" y="1340" type="line" name="sv02"/>
      <point x="745" y="1340" type="line" name="sv03"/>
      <point x="745" y="0" type="line" name="dh02"/>
    </contour>
  </outline>
</glyph>
<glyph name="Y" format="2">
  <advance width="1300"/>
  <unicode hex="0059"/>
  <outline>
    <contour>
      <point x="691" y="935" type="line" name="fh01"/>
      <point x="979" y="1500" type="line" name="sh01"/>
      <point x="1171" y="1500" type="line" name="at01"/>
      <point x="736" y="646" type="line"/>
      <point x="736" y="0" type="line" name="dh02"/>
      <point x="526" y="0" type="line" name="dh01"/>
      <point x="526" y="645" type="line"/>
      <point x="90" y="1500" type="line" name="fh02"/>
      <point x="294" y="1520" type="line" name="sh02"/>
      <point x="582" y="954" type="line" name="fh03"/>
      <point x="661" y="705" type="line" name="ah01"/>
    </contour>
  </outline>
</glyph>
<glyph name="Z" format="2">
  <advance width="1300"/>
  <unicode hex="005A"/>
  <outline>
    <contour>
      <point x="1101" y="160" type="line" name="sv01"/>
      <point x="1121" y="0" type="line" name="ab01"/>
      <point x="181" y="0" type="line"/>
      <point x="161" y="50" type="line"/>
      <point x="726" y="1200" type="line"/>
      <point x="910" y="1380" type="line" name="iv01"/>
      <point x="645" y="1340" type="line" name="sv02"/>
      <point x="250" y="1340" type="line" name="iv02"/>
      <point x="230" y="1500" type="line" name="at01"/>
      <point x="1056" y="1500" type="line"/>
      <point x="1071" y="1478" type="line"/>
      <point x="500" y="300" type="line"/>
      <point x="322" y="120" type="line" name="iv03"/>
      <point x="587" y="160" type="line"/>
    </contour>
  </outline>
</glyph>
<glyph name="bracketleft" format="2">
  <advance width="1300"/>
  <unicode hex="005B"/>
  <outline>
    <contour>
      <point x="422" y="1320" type="line" name="dh01"/>
      <point x="400" y="1520" type="line" name="at01"/>
      <point x="972" y="1520" type="line"/>
      <point x="972" y="1370" type="line" name="sv01"/>
      <point x="600" y="1370" type="line"/>
      <point x="620" y="1170" type="line" name="dh02"/>
      <point x="620" y="-70" type="line"/>
      <point x="600" y="-270" type="line"/>
      <point x="972" y="-270" type="line" name="dv02"/>
      <point x="972" y="-420" type="line" name="dv01"/>
      <point x="400" y="-420" type="line"/>
      <point x="422" y="-220" type="line"/>
    </contour>
  </outline>
</glyph>
<glyph name="bracketright" format="2">
  <advance width="1300"/>
  <unicode hex="005D"/>
  <outline>
    <contour>
      <point x="978" y="-220" type="line" name="dh02"/>
      <point x="1000" y="-420" type="line" name="dv01"/>
      <point x="428" y="-420" type="line"/>
      <point x="428" y="-270" type="line"/>
      <point x="800" y="-270" type="line" name="dv02"/>
      <point x="780" y="-70" type="line" name="dh01"/>
      <point x="780" y="1170" type="line"/>
      <point x="800" y="1370" type="line" name="sv01"/>
      <point x="428" y="1370" type="line"/>
      <point x="428" y="1520" type="line" name="at01"/>
      <point x="1000" y="1520" type="line"/>
      <point x="978" y="1320" type="line"/>
    </contour>
  </outline>
</glyph>
<glyph name="asciicircum" format="2">
  <advance width="1300"/>
  <unicode hex="005E"/>
  <outline>
    <contour>
      <point x="1179" y="912" type="line" name="ah02"/>
      <point x="978" y="912" type="line" name="sh01"/>
      <point x="697" y="1239" type="line"/>
      <point x="652" y="1350" type="line" name="ih01"/>
      <point x="608" y="1241" type="line"/>
      <point x="338" y="914" type="line" name="sh02"/>
      <point x="122" y="914" type="line" name="ah01"/>
      <point x="580" y="1500" type="line" name="ih02"/>
      <point x="709" y="1517" type="line" name="ih03"/>
    </contour>
  </outline>
</glyph>
<glyph name="b" format="2">
  <advance width="1300"/>
  <unicode hex="0062"/>
  <outline>
    <contour>
      <point x="390" y="171" type="line" name="sh03"/>
      <point x="409" y="165"/>
      <point x="459" y="155"/>
      <point x="516" y="147"/>
      <point x="575" y="143"/>
      <point x="604" y="143" type="qcurve" name="sv01"/>
      <point x="665" y="143"/>
      <point x="764" y="183"/>
      <point x="842" y="250"/>
      <point x="900" y="341"/>
      <point x="937" y="442"/>
      <point x="955" y="550"/>
      <point x="955" y="601" type="qcurve" name="ah01"/>
      <point x="955" y="701"/>
      <point x="903" y="837"/>
      <point x="821" y="921"/>
      <point x="722" y="957"/>
      <point x="675" y="957" type="qcurve" name="sv02"/>
      <point x="596" y="957"/>
      <point x="453" y="896"/>
      <point x="390" y="845" type="qcurve"/>
    </contour>
    <contour>
      <point x="210" y="1420" type="line" name="sh01"/>
      <point x="190" y="1600" type="line"/>
      <point x="390" y="1620" type="line" name="sh02"/>
      <point x="390" y="974" type="line" name="iv01"/>
      <point x="475" y="1065" type="line"/>
      <point x="526" y="1089"/>
      <point x="637" y="1117"/>
      <point x="694" y="1117" type="qcurve" name="av01"/>
      <point x="776" y="1117"/>
      <point x="940" y="1049"/>
      <point x="1069" y="916"/>
      <point x="1150" y="722"/>
      <point x="1150" y="596" type="qcurve" name="sh04"/>
      <point x="1150" y="458"/>
      <point x="1059" y="232"/>
      <point x="906" y="71"/>
      <point x="705" y="-17"/>
      <point x="595" y="-17" type="qcurve" name="ab01"/>
      <point x="532" y="-17"/>
      <point x="413" y="-8"/>
      <point x="311" y="7"/>
      <point x="232" y="26"/>
      <point x="210" y="35" type="qcurve"/>
    </contour>
  </outline>
</glyph>
<glyph name="c" format="2">
  <advance width="1300"/>
  <unicode hex="0063"/>
  <outline>
    <contour>
      <point x="1007" y="878" type="line" name="hr00"/>
      <point x="968" y="913"/>
      <point x="830" y="957"/>
      <point x="724" y="957" type="qcurve" name="sv01"/>
      <point x="640" y="957"/>
      <point x="507" y="894"/>
      <point x="414" y="786"/>
      <point x="365" y="643"/>
      <point x="365" y="564" type="qcurve" name="sh02"/>
      <point x="365" y="482"/>
      <point x="412" y="333"/>
      <point x="505" y="219"/>
      <point x="643" y="152"/>
      <point x="735" y="152" type="qcurve" name="sv02"/>
      <point x="787" y="152"/>
      <point x="883" y="176"/>
      <point x="961" y="209"/>
      <point x="1016" y="242"/>
      <point x="1028" y="252" type="qcurve"/>
      <point x="1100" y="111" type="line"/>
      <point x="1085" y="98"/>
      <point x="1025" y="55"/>
      <point x="932" y="13"/>
      <point x="805" y="-17"/>
      <point x="721" y="-17" type="qcurve" name="ab01"/>
      <point x="596" y="-17"/>
      <point x="393" y="82"/>
      <point x="249" y="247"/>
      <point x="170" y="461"/>
      <point x="170" y="577" type="qcurve" name="sh01"/>
      <point x="170" y="681"/>
      <point x="247" y="876"/>
      <point x="391" y="1026"/>
      <point x="597" y="1117"/>
      <point x="726" y="1117" type="qcurve" name="at01"/>
      <point x="848" y="1117"/>
      <point x="1043" y="1060"/>
      <point x="1106" y="991" type="qcurve"/>
    </contour>
  </outline>
</glyph>
<glyph name="d" format="2">
  <advance width="1300"/>
  <unicode hex="0064"/>
  <outline>
    <contour>
      <point x="746" y="940" type="line" name="sv01"/>
      <point x="654" y="940"/>
      <point x="504" y="871"/>
      <point x="397" y="753"/>
      <point x="339" y="593"/>
      <point x="339" y="502" type="qcurve" name="sh02"/>
      <point x="339" y="413"/>
      <point x="390" y="279"/>
      <point x="473" y="189"/>
      <point x="577" y="144"/>
      <point x="630" y="144" type="qcurve" name="sv02"/>
      <point x="677" y="144"/>
      <point x="761" y="176"/>
      <point x="833" y="224"/>
      <point x="891" y="281"/>
      <point x="911" y="306" type="qcurve" name="sh03"/>
      <point x="911" y="940" type="line"/>
    </contour>
    <contour>
      <point x="911" y="0" type="line" name="ab02"/>
      <point x="911" y="162" type="line" name="ah01"/>
      <point x="825" y="49" type="line"/>
      <point x="789" y="25"/>
      <point x="669" y="-17"/>
      <point x="591" y="-17" type="qcurve" name="ab01"/>
      <point x="501" y="-17"/>
      <point x="341" y="48"/>
      <point x="221" y="181"/>
      <point x="151" y="386"/>
      <point x="151" y="526" type="qcurve" name="sh01"/>
      <point x="151" y="646"/>
      <point x="244" y="855"/>
      <point x="404" y="1011"/>
      <point x="621" y="1100"/>
      <point x="745" y="1100" type="qcurve" name="av02"/>
      <point x="911" y="1100" type="line" name="sh04"/>
      <point x="911" y="1620" type="line" name="av01"/>
      <point x="1091" y="1600" type="line"/>
      <point x="1091" y="180" type="line" name="sh05"/>
      <point x="1111" y="0" type="line"/>
    </contour>
  </outline>
</glyph>
<glyph name="f" format="2">
  <advance width="1300"/>
  <unicode hex="0066"/>
  <outline>
    <contour>
      <point x="148" y="1100" type="line" name="dv01"/>
      <point x="400" y="1100" type="line" name="dh01"/>
      <point x="400" y="1255" type="line" name="sh01"/>
      <point x="400" y="1340"/>
      <point x="468" y="1474"/>
      <point x="584" y="1567"/>
      <point x="740" y="1617"/>
      <point x="828" y="1617" type="qcurve" name="av01"/>
      <point x="873" y="1617"/>
      <point x="965" y="1601"/>
      <point x="1050" y="1576"/>
      <point x="1122" y="1544"/>
      <point x="1145" y="1529" type="qcurve"/>
      <point x="1060" y="1411" type="line"/>
      <point x="1048" y="1418"/>
      <point x="999" y="1434"/>
      <point x="942" y="1448"/>
      <point x="882" y="1457"/>
      <point x="860" y="1457" type="qcurve" name="sv01"/>
      <point x="817" y="1457"/>
      <point x="720" y="1434"/>
      <point x="639" y="1383"/>
      <point x="585" y="1302"/>
      <point x="585" y="1245" type="qcurve" name="sh02"/>
      <point x="585" y="1100" type="line" name="dh02"/>
      <point x="1033" y="1100" type="line" name="dv03"/>
      <point x="1013" y="940" type="line" name="dv04"/>
      <point x="590" y="940" type="line" name="dh04"/>
      <point x="590" y="0" type="line" name="ab01"/>
      <point x="400" y="0" type="line"/>
      <point x="400" y="940" type="line" name="dh03"/>
      <point x="148" y="940" type="line" name="dv02"/>
    </contour>
  </outline>
</glyph>
<glyph name="i" format="2">
  <advance width="1300"/>
  <unicode hex="0069"/>
  <outline>
    <contour>
      <point x="515" y="1500" type="line" name="sh01"/>
      <point x="717" y="1500" type="line" name="sh02"/>
      <point x="717" y="1300" type="line" name="sv01"/>
      <point x="515" y="1300" type="line"/>
    </contour>
    <contour>
      <point x="711" y="393" type="line" name="dh02"/>
      <point x="711" y="341"/>
      <point x="724" y="253"/>
      <point x="754" y="189"/>
      <point x="804" y="153"/>
      <point x="841" y="153" type="qcurve" name="av01"/>
      <point x="890" y="153"/>
      <point x="983" y="169"/>
      <point x="1057" y="190"/>
      <point x="1106" y="208"/>
      <point x="1112" y="210" type="qcurve" name="av02"/>
      <point x="1151" y="56" type="line"/>
      <point x="1145" y="53" name="ah03"/>
      <point x="1093" y="29"/>
      <point x="1009" y="4"/>
      <point x="897" y="-17"/>
      <point x="831" y="-17" type="qcurve" name="ab01"/>
      <point x="733" y="-17"/>
      <point x="612" y="47"/>
      <point x="544" y="160"/>
      <point x="521" y="314"/>
      <point x="521" y="403" type="qcurve" name="dh01"/>
      <point x="521" y="920" type="line"/>
      <point x="561" y="980" type="line" name="ah02"/>
      <point x="421" y="940" type="line"/>
      <point x="220" y="940" type="line"/>
      <point x="200" y="1100" type="line" name="ah01"/>
      <point x="711" y="1100" type="line"/>
      <point x="711" y="501" type="line"/>
    </contour>
  </outline>
</glyph>
<glyph name="o" format="2">
  <advance width="1300"/>
  <unicode hex="006F"/>
  <outline>
    <contour>
      <point x="649" y="-17" type="qcurve" name="ab01"/>
      <point x="538" y="-17"/>
      <point x="353" y="70"/>
      <point x="219" y="223"/>
      <point x="144" y="431"/>
      <point x="144" y="553" type="qcurve" name="sh01"/>
      <point x="144" y="674"/>
      <point x="216" y="881"/>
      <point x="348" y="1032"/>
      <point x="535" y="1117"/>
      <point x="649" y="1117" type="qcurve" name="av01"/>
      <point x="760" y="1117"/>
      <point x="942" y="1032"/>
      <point x="1073" y="881"/>
      <point x="1145" y="674"/>
      <point x="1145" y="553" type="qcurve" name="sh02"/>
      <point x="1145" y="431"/>
      <point x="1076" y="223"/>
      <point x="947" y="70"/>
      <point x="763" y="-17"/>
    </contour>
    <contour>
      <point x="955" y="526" type="qcurve" name="ah01"/>
      <point x="955" y="607"/>
      <point x="921" y="763"/>
      <point x="847" y="886"/>
      <point x="729" y="962"/>
      <point x="645" y="962" type="qcurve" name="sv01"/>
      <point x="565" y="962"/>
      <point x="447" y="896"/>
      <point x="371" y="786"/>
      <point x="334" y="646"/>
      <point x="334" y="572" type="qcurve" name="sh03"/>
      <point x="334" y="491"/>
      <point x="371" y="335"/>
      <point x="448" y="213"/>
      <point x="569" y="138"/>
      <point x="653" y="138" type="qcurve" name="sv02"/>
      <point x="732" y="138"/>
      <point x="847" y="204"/>
      <point x="920" y="313"/>
      <point x="955" y="452"/>
    </contour>
  </outline>
</glyph>
<glyph name="p" format="2">
  <advance width="1300"/>
  <unicode hex="0070"/>
  <outline>
    <contour>
      <point x="390" y="160" type="line" name="sh03"/>
      <point x="554" y="160" type="line"/>
      <point x="646" y="160"/>
      <point x="796" y="221"/>
      <point x="902" y="331"/>
      <point x="960" y="485"/>
      <point x="960" y="578" type="qcurve" name="ah01"/>
      <point x="960" y="676"/>
      <point x="906" y="819"/>
      <point x="822" y="912"/>
      <point x="719" y="957"/>
      <point x="670" y="957" type="qcurve" name="sv01"/>
      <point x="621" y="957"/>
      <point x="536" y="932"/>
      <point x="465" y="894"/>
      <point x="409" y="848"/>
      <point x="390" y="827" type="qcurve"/>
    </contour>
    <contour>
      <point x="210" y="-500" type="line" name="sh01"/>
      <point x="210" y="1100" type="line"/>
      <point x="390" y="1120" type="line" name="sh04"/>
      <point x="390" y="944" type="line" name="ih01"/>
      <point x="485" y="1071" type="line"/>
      <point x="514" y="1088"/>
      <point x="621" y="1117"/>
      <point x="699" y="1117" type="qcurve" name="av01"/>
      <point x="782" y="1117"/>
      <point x="944" y="1039"/>
      <point x="1071" y="895"/>
      <point x="1150" y="691"/>
      <point x="1150" y="565" type="qcurve" name="sh05"/>
      <point x="1150" y="442"/>
      <point x="1055" y="235"/>
      <point x="888" y="84"/>
      <point x="664" y="0"/>
      <point x="535" y="0" type="qcurve" name="ab01"/>
      <point x="390" y="0" type="line"/>
      <point x="390" y="-500" type="line" name="sh02"/>
    </contour>
  </outline>
</glyph>
<glyph name="r" format="2">
  <advance width="1300"/>
  <unicode hex="0072"/>
  <outline>
    <contour>
      <point x="391" y="895" type="line" name="iv01"/>
      <point x="482" y="1053" type="line"/>
      <point x="510" y="1074"/>
      <point x="582" y="1100"/>
      <point x="658" y="1113"/>
      <point x="735" y="1117"/>
      <point x="770" y="1117" type="qcurve" name="at01"/>
      <point x="845" y="1117"/>
      <point x="951" y="1104"/>
      <point x="1024" y="1084"/>
      <point x="1068" y="1063"/>
      <point x="1080" y="1055" type="qcurve"/>
      <point x="1130" y="770" type="line" name="dh04"/>
      <point x="980" y="750" type="line" name="dh03"/>
      <point x="930" y="928" type="line" name="ih01"/>
      <point x="922" y="931"/>
      <point x="888" y="937"/>
      <point x="844" y="943"/>
      <point x="795" y="947"/>
      <point x="773" y="947" type="qcurve" name="sv01"/>
      <point x="705" y="947"/>
      <point x="589" y="916"/>
      <point x="493" y="862"/>
      <point x="418" y="790"/>
      <point x="391" y="750" type="qcurve"/>
      <point x="391" y="0" type="line" name="dh02"/>
      <point x="211" y="0" type="line" name="dh01"/>
      <point x="211" y="1100" type="line"/>
      <point x="391" y="1120" type="line" name="sh01"/>
    </contour>
  </outline>
</glyph>
<glyph name="t" format="2">
  <advance width="1300"/>
  <unicode hex="0074"/>
  <outline>
    <contour>
      <point x="571" y="376" type="line" name="dh02"/>
      <point x="571" y="310"/>
      <point x="586" y="221"/>
      <point x="615" y="166"/>
      <point x="658" y="143"/>
      <point x="686" y="143" type="qcurve" name="sv01"/>
      <point x="733" y="143"/>
      <point x="825" y="165"/>
      <point x="905" y="194"/>
      <point x="967" y="223"/>
      <point x="984" y="230" type="qcurve"/>
      <point x="1053" y="109" type="line" name="fh01"/>
      <point x="1044" y="101"/>
      <point x="975" y="60"/>
      <point x="870" y="16"/>
      <point x="738" y="-17"/>
      <point x="666" y="-17" type="qcurve" name="ab01"/>
      <point x="576" y="-17"/>
      <point x="467" y="49"/>
      <point x="409" y="163"/>
      <point x="391" y="314"/>
      <point x="391" y="400" type="qcurve" name="dh01"/>
      <point x="391" y="940" type="line" name="sv02"/>
      <point x="100" y="940" type="line"/>
      <point x="100" y="1100" type="line"/>
      <point x="391" y="1100" type="line" name="sh01"/>
      <point x="391" y="1309" type="line" name="mv01"/>
      <point x="566" y="1420" type="line" name="sh02"/>
      <point x="566" y="1100" type="line" name="sv03"/>
      <point x="1050" y="1100" type="line" name="av01"/>
      <point x="1030" y="940" type="line" name="sv04"/>
      <point x="571" y="940" type="line"/>
    </contour>
  </outline>
</glyph>
<glyph name="w" format="2">
  <advance width="1300"/>
  <unicode hex="0077"/>
  <outline>
    <contour>
      <point x="836" y="400" type="line" name="hr00"/>
      <point x="897" y="150" type="line" name="ah02"/>
      <point x="908" y="480" type="line"/>
      <point x="1038" y="1100" type="line" name="sh01"/>
      <point x="1200" y="1120" type="line" name="sh02"/>
      <point x="982" y="0" type="line" name="ih02"/>
      <point x="835" y="0" type="line" name="ih03"/>
      <point x="703" y="348" type="line"/>
      <point x="647" y="750" type="line" name="ih01"/>
      <point x="593" y="350" type="line"/>
      <point x="462" y="0" type="line" name="ih04"/>
      <point x="315" y="0" type="line" name="ih05"/>
      <point x="100" y="1100" type="line" name="sh04"/>
      <point x="262" y="1120" type="line" name="sh03"/>
      <point x="385" y="480" type="line"/>
      <point x="406" y="150" type="line" name="ah01"/>
      <point x="571" y="885" type="line" name="ih06"/>
      <point x="724" y="885" type="line" name="ih07"/>
    </contour>
  </outline>
  <guideline angle="0" color="1,0,0,1" x="0" y="500"/>
  <guideline angle="0" color="1,0,0,1" x="0" y="600"/>
  <guideline angle="90" color="1,0,0,1" x="467" y="0"/>
  <guideline angle="90" color="1,0,0,1" x="1040" y="0"/>
  <guideline angle="90" color="1,0,0,1" x="743" y="0"/>
</glyph>
<glyph name="y" format="2">
  <advance width="1300"/>
  <unicode hex="0079"/>
  <outline>
    <contour>
      <point x="712" y="364" type="line" name="dh02"/>
      <point x="981" y="1100" type="line" name="sh01"/>
      <point x="1161" y="1120" type="line" name="sh02"/>
      <point x="757" y="-17" type="line" name="ih01"/>
      <point x="727" y="-101"/>
      <point x="658" y="-267"/>
      <point x="571" y="-399"/>
      <point x="462" y="-480"/>
      <point x="392" y="-480" type="qcurve" name="av02"/>
      <point x="336" y="-480"/>
      <point x="242" y="-436"/>
      <point x="200" y="-400" type="qcurve" name="ah01"/>
      <point x="273" y="-283" type="line" name="sh03"/>
      <point x="279" y="-289"/>
      <point x="298" y="-305"/>
      <point x="321" y="-320"/>
      <point x="348" y="-330"/>
      <point x="362" y="-330" type="qcurve" name="av01"/>
      <point x="398" y="-330"/>
      <point x="457" y="-279"/>
      <point x="508" y="-197"/>
      <point x="551" y="-97"/>
      <point x="571" y="-47" type="qcurve" name="ab01"/>
      <point x="164" y="1100" type="line" name="sh05"/>
      <point x="354" y="1120" type="line" name="sh04"/>
      <point x="618" y="364" type="line" name="dh01"/>
      <point x="670" y="132" type="line" name="ah02"/>
    </contour>
  </outline>
  <guideline angle="90" color="1,0,0,1" x="550" y="0"/>
</glyph>
<glyph name="braceleft" format="2">
  <advance width="1300"/>
  <unicode hex="007B"/>
  <outline>
    <contour>
      <point x="228" y="625" type="line" name="iv01"/>
      <point x="350" y="625" type="line"/>
      <point x="399" y="632"/>
      <point x="458" y="672"/>
      <point x="490" y="736"/>
      <point x="500" y="824"/>
      <point x="500" y="880" type="qcurve"/>
      <point x="500" y="1119" type="line"/>
      <point x="500" y="1204"/>
      <point x="531" y="1350"/>
      <point x="607" y="1456"/>
      <point x="734" y="1517"/>
      <point x="830" y="1517" type="qcurve" name="at01"/>
      <point x="876" y="1517"/>
      <point x="941" y="1511"/>
      <point x="992" y="1499"/>
      <point x="1033" y="1482"/>
      <point x="1054" y="1472" type="qcurve" name="ah03"/>
      <point x="991" y="1349" type="line" name="sh01"/>
      <point x="972" y="1360"/>
      <point x="907" y="1376"/>
      <point x="882" y="1376" type="qcurve"/>
      <point x="869" y="1376" type="line" name="ah06"/>
      <point x="815" y="1372"/>
      <point x="748" y="1335"/>
      <point x="712" y="1270"/>
      <point x="700" y="1177"/>
      <point x="700" y="1119" type="qcurve"/>
      <point x="700" y="880" type="line"/>
      <point x="700" y="776"/>
      <point x="652" y="604"/>
      <point x="593" y="550" type="qcurve" name="ah01"/>
      <point x="623" y="523"/>
      <point x="663" y="452"/>
      <point x="689" y="367"/>
      <point x="700" y="271"/>
      <point x="700" y="220" type="qcurve"/>
      <point x="700" y="-20" type="line"/>
      <point x="700" y="-79"/>
      <point x="712" y="-171"/>
      <point x="748" y="-236"/>
      <point x="815" y="-273"/>
      <point x="869" y="-277" type="qcurve" name="ah05"/>
      <point x="882" y="-277" type="line"/>
      <point x="907" y="-277"/>
      <point x="972" y="-261"/>
      <point x="991" y="-250" type="qcurve" name="sh02"/>
      <point x="1054" y="-373" type="line" name="ah04"/>
      <point x="1033" y="-383"/>
      <point x="992" y="-400"/>
      <point x="941" y="-413"/>
      <point x="876" y="-420"/>
      <point x="830" y="-420" type="qcurve" name="av01"/>
      <point x="734" y="-420"/>
      <point x="607" y="-359"/>
      <point x="531" y="-251"/>
      <point x="500" y="-105"/>
      <point x="500" y="-20" type="qcurve"/>
      <point x="500" y="220" type="line"/>
      <point x="500" y="275"/>
      <point x="490" y="364"/>
      <point x="458" y="428"/>
      <point x="399" y="468"/>
      <point x="350" y="475" type="qcurve"/>
      <point x="228" y="475" type="line" name="ah02"/>
    </contour>
  </outline>
  <guideline angle="0" color="1,0,0,1" x="0" y="550"/>
  <guideline angle="0" color="1,0,0,1" x="0" y="475"/>
</glyph>
<glyph name="bar" format="2">
  <advance width="1300"/>
  <unicode hex="007C"/>
  <outline>
    <contour>
      <point x="700" y="1520" type="line" name="at01"/>
      <point x="700" y="-400" type="line" name="dh02"/>
      <point x="500" y="-400" type="line" name="dh01"/>
      <point x="500" y="1500" type="line"/>
    </contour>
  </outline>
</glyph>
<glyph name="braceright" format="2">
  <advance width="1300"/>
  <unicode hex="007D"/>
  <outline>
    <contour>
      <point x="1072" y="625" type="line" name="iv01"/>
      <point x="1072" y="475" type="line" name="ah05"/>
      <point x="950" y="475" type="line"/>
      <point x="901" y="468"/>
      <point x="842" y="428"/>
      <point x="810" y="364"/>
      <point x="800" y="275"/>
      <point x="800" y="220" type="qcurve"/>
      <point x="800" y="-20" type="line"/>
      <point x="800" y="-105"/>
      <point x="769" y="-251"/>
      <point x="693" y="-359"/>
      <point x="566" y="-420"/>
      <point x="470" y="-420" type="qcurve" name="av01"/>
      <point x="424" y="-420"/>
      <point x="359" y="-413"/>
      <point x="308" y="-400"/>
      <point x="267" y="-383"/>
      <point x="246" y="-373" type="qcurve" name="ah04"/>
      <point x="309" y="-250" type="line" name="sh01"/>
      <point x="328" y="-261"/>
      <point x="393" y="-277"/>
      <point x="418" y="-277" type="qcurve"/>
      <point x="431" y="-277" type="line" name="ah03"/>
      <point x="485" y="-273"/>
      <point x="552" y="-236"/>
      <point x="588" y="-171"/>
      <point x="600" y="-79"/>
      <point x="600" y="-20" type="qcurve"/>
      <point x="600" y="220" type="line"/>
      <point x="600" y="271"/>
      <point x="611" y="367"/>
      <point x="637" y="452"/>
      <point x="677" y="523"/>
      <point x="707" y="550" type="qcurve" name="ah06"/>
      <point x="648" y="604"/>
      <point x="600" y="776"/>
      <point x="600" y="880" type="qcurve"/>
      <point x="600" y="1119" type="line"/>
      <point x="600" y="1177"/>
      <point x="588" y="1270"/>
      <point x="552" y="1335"/>
      <point x="485" y="1372"/>
      <point x="431" y="1376" type="qcurve" name="ah02"/>
      <point x="418" y="1376" type="line"/>
      <point x="393" y="1376"/>
      <point x="328" y="1360"/>
      <point x="309" y="1349" type="qcurve" name="sh02"/>
      <point x="246" y="1472" type="line" name="ah01"/>
      <point x="267" y="1482"/>
      <point x="308" y="1499"/>
      <point x="359" y="1511"/>
      <point x="424" y="1517"/>
      <point x="470" y="1517" type="qcurve" name="at01"/>
      <point x="566" y="1517"/>
      <point x="693" y="1456"/>
      <point x="769" y="1350"/>
      <point x="800" y="1204"/>
      <point x="800" y="1119" type="qcurve"/>
      <point x="800" y="880" type="line"/>
      <point x="800" y="824"/>
      <point x="810" y="736"/>
      <point x="842" y="672"/>
      <point x="901" y="632"/>
      <point x="950" y="625" type="qcurve"/>
    </contour>
  </outline>
</glyph>
<glyph name="asciitilde" format="2">
  <advance width="1300"/>
  <unicode hex="007E"/>
  <outline>
    <contour>
      <point x="133" y="484" type="line" name="ah01"/>
      <point x="144" y="540"/>
      <point x="207" y="655"/>
      <point x="297" y="747" name="ih02"/>
      <point x="409" y="805"/>
      <point x="471" y="805" type="qcurve" name="sh01"/>
      <point x="516" y="805"/>
      <point x="588" y="778"/>
      <point x="647" y="739"/>
      <point x="699" y="692"/>
      <point x="753" y="653"/>
      <point x="811" y="626"/>
      <point x="847" y="626" type="qcurve" name="ih03"/>
      <point x="883" y="626"/>
      <point x="941" y="656"/>
      <point x="983" y="703"/>
      <point x="1012" y="762"/>
      <point x="1020" y="792" type="qcurve" name="sh02"/>
      <point x="1166" y="776" type="line" name="ah02"/>
      <point x="1156" y="714"/>
      <point x="1097" y="588"/>
      <point x="1007" y="486" name="ih04"/>
      <point x="889" y="422"/>
      <point x="822" y="422" type="qcurve" name="sh03"/>
      <point x="786" y="422"/>
      <point x="722" y="449"/>
      <point x="663" y="488"/>
      <point x="606" y="535"/>
      <point x="547" y="574"/>
      <point x="483" y="601"/>
      <point x="447" y="601" type="qcurve" name="ih01"/>
      <point x="416" y="601"/>
      <point x="363" y="579"/>
      <point x="321" y="542"/>
      <point x="291" y="494"/>
      <point x="282" y="468" type="qcurve" name="sh04"/>
    </contour>
  </outline>
</glyph>
<glyph name="guillemotleft" format="2">
  <advance width="1300"/>
  <unicode hex="00AB"/>
  <outline>
    <contour>
      <point x="570" y="1026" type="line" name="av01"/>
      <point x="620" y="901" type="line" name="sv01"/>
      <point x="295" y="610" type="line"/>
      <point x="157" y="550" type="line" name="iv01"/>
      <point x="294" y="490" type="line"/>
      <point x="622" y="201" type="line" name="sv02"/>
      <point x="568" y="66" type="line" name="av02"/>
      <point x="100" y="478" type="line" name="dv02"/>
      <point x="100" y="617" type="line" name="dv01"/>
    </contour>
    <contour>
      <point x="1070" y="1026" type="line" name="av03"/>
      <point x="1120" y="901" type="line" name="sv03"/>
      <point x="795" y="610" type="line"/>
      <point x="657" y="550" type="line" name="iv02"/>
      <point x="794" y="490" type="line"/>
      <point x="1122" y="201" type="line" name="sv04"/>
      <point x="1068" y="66" type="line" name="av04"/>
      <point x="600" y="478" type="line" name="dv04"/>
      <point x="600" y="617" type="line" name="dv03"/>
    </contour>
  </outline>
</glyph>
<glyph name="degree" format="2">
  <advance width="1300"/>
  <unicode hex="00B0"/>
  <outline>
    <contour>
      <point x="500" y="1517" type="qcurve" name="at01"/>
      <point x="556" y="1517"/>
      <point x="654" y="1475"/>
      <point x="727" y="1401"/>
      <point x="769" y="1303"/>
      <point x="769" y="1247" type="qcurve" name="ah02"/>
      <point x="769" y="1191"/>
      <point x="727" y="1093"/>
      <point x="654" y="1020"/>
      <point x="556" y="977"/>
      <point x="500" y="977" type="qcurve" name="av01"/>
      <point x="444" y="977"/>
      <point x="346" y="1020"/>
      <point x="273" y="1093"/>
      <point x="231" y="1191"/>
      <point x="231" y="1247" type="qcurve" name="ah01"/>
      <point x="231" y="1303"/>
      <point x="273" y="1401"/>
      <point x="346" y="1475"/>
      <point x="444" y="1517"/>
    </contour>
    <contour>
      <point x="500" y="1088" type="qcurve" name="sv01"/>
      <point x="533" y="1088"/>
      <point x="591" y="1113"/>
      <point x="634" y="1156"/>
      <point x="659" y="1214"/>
      <point x="659" y="1247" type="qcurve" name="sh01"/>
      <point x="659" y="1280"/>
      <point x="634" y="1338"/>
      <point x="591" y="1381"/>
      <point x="533" y="1406"/>
      <point x="500" y="1406" type="qcurve" name="sv02"/>
      <point x="467" y="1406"/>
      <point x="409" y="1381"/>
      <point x="366" y="1338"/>
      <point x="341" y="1280"/>
      <point x="341" y="1247" type="qcurve" name="sh02"/>
      <point x="341" y="1214"/>
      <point x="366" y="1156"/>
      <point x="409" y="1113"/>
      <point x="467" y="1088"/>
    </contour>
  </outline>
</glyph>
<glyph name="plusminus" format="2">
  <advance width="1300"/>
  <unicode hex="00B1"/>
  <outline>
    <contour>
      <point x="200" y="862" type="line"/>
      <point x="573" y="862" type="line"/>
      <point x="573" y="1199" type="line"/>
      <point x="728" y="1199" type="line"/>
      <point x="728" y="862" type="line"/>
      <point x="1100" y="862" type="line"/>
      <point x="1100" y="738" type="line"/>
      <point x="728" y="738" type="line"/>
      <point x="728" y="400" type="line"/>
      <point x="573" y="400" type="line"/>
      <point x="573" y="738" type="line"/>
      <point x="200" y="738" type="line"/>
    </contour>
    <contour>
      <point x="200" y="290" type="line" name="hr01"/>
      <point x="1100" y="290" type="line"/>
      <point x="1100" y="150" type="line"/>
      <point x="200" y="150" type="line"/>
    </contour>
  </outline>
</glyph>
<glyph name="acute" format="2">
  <advance width="1300"/>
  <unicode hex="00B4"/>
  <outline>
    <contour>
      <point x="600" y="1500" type="line" name="ah01"/>
      <point x="830" y="1520" type="line" name="sh01"/>
      <point x="590" y="1200" type="line" name="av01"/>
      <point x="440" y="1200" type="line"/>
    </contour>
  </outline>
</glyph>
<glyph name="mu" format="2">
  <advance width="1300"/>
  <unicode hex="00B5"/>
  <outline>
    <contour>
      <point x="1242" y="36" type="line" name="ah02"/>
      <point x="1233" y="27"/>
      <point x="1195" y="9"/>
      <point x="1147" y="-7"/>
      <point x="1093" y="-17"/>
      <point x="1068" y="-17" type="qcurve" name="ab03"/>
      <point x="976" y="-17"/>
      <point x="848" y="69"/>
      <point x="825" y="155" type="qcurve" name="ih01"/>
      <point x="800" y="86" type="line"/>
      <point x="758" y="40"/>
      <point x="615" y="-17"/>
      <point x="518" y="-17" type="qcurve" name="ab01"/>
      <point x="499" y="-17"/>
      <point x="449" y="-14"/>
      <point x="397" y="-5"/>
      <point x="350" y="12"/>
      <point x="335" y="25" type="qcurve"/>
      <point x="380" y="-166" type="line"/>
      <point x="380" y="-500" type="line" name="ab02"/>
      <point x="200" y="-500" type="line"/>
      <point x="200" y="1100" type="line" name="sh01"/>
      <point x="380" y="1118" type="line" name="at01"/>
      <point x="380" y="348" type="line" name="sh03"/>
      <point x="380" y="307"/>
      <point x="402" y="230"/>
      <point x="449" y="170"/>
      <point x="520" y="133"/>
      <point x="569" y="133" type="qcurve" name="sv01"/>
      <point x="601" y="133"/>
      <point x="663" y="152"/>
      <point x="721" y="182"/>
      <point x="775" y="221"/>
      <point x="800" y="241" type="qcurve" name="sh04"/>
      <point x="800" y="1100" type="line" name="ah01"/>
      <point x="978" y="1118" type="line" name="sh02"/>
      <point x="978" y="352" type="line"/>
      <point x="978" y="292"/>
      <point x="993" y="208"/>
      <point x="1020" y="156"/>
      <point x="1060" y="133"/>
      <point x="1086" y="133" type="qcurve"/>
      <point x="1110" y="133"/>
      <point x="1156" y="142"/>
      <point x="1177" y="150" type="qcurve"/>
    </contour>
  </outline>
</glyph>
<glyph name="periodcentered" format="2">
  <advance width="1300"/>
  <unicode hex="00B7"/>
  <outline>
    <contour>
      <point x="485" y="650" type="qcurve" name="ah01"/>
      <point x="485" y="684"/>
      <point x="511" y="744"/>
      <point x="556" y="789"/>
      <point x="615" y="815"/>
      <point x="649" y="815" type="qcurve" name="av01"/>
      <point x="683" y="815"/>
      <point x="743" y="789"/>
      <point x="788" y="744"/>
      <point x="814" y="684"/>
      <point x="814" y="650" type="qcurve" name="ah02"/>
      <point x="814" y="616"/>
      <point x="788" y="555"/>
      <point x="744" y="510"/>
      <point x="685" y="483"/>
      <point x="651" y="483" type="qcurve" name="ab01"/>
      <point x="617" y="483"/>
      <point x="556" y="510"/>
      <point x="511" y="555"/>
      <point x="485" y="616"/>
    </contour>
  </outline>
</glyph>
<glyph name="cedilla" format="2">
  <advance width="1300"/>
  <unicode hex="00B8"/>
  <outline>
    <contour>
      <point x="824" y="0" type="line" name="sh01"/>
      <point x="847" y="-27"/>
      <point x="865" y="-59" type="qcurve"/>
      <point x="881" y="-86"/>
      <point x="907" y="-158"/>
      <point x="907" y="-198" type="qcurve" name="sh02"/>
      <point x="907" y="-242"/>
      <point x="870" y="-318"/>
      <point x="808" y="-375"/>
      <point x="727" y="-407"/>
      <point x="683" y="-407" type="qcurve"/>
      <point x="633" y="-407"/>
      <point x="540" y="-380"/>
      <point x="503" y="-363" type="qcurve"/>
      <point x="460" y="-344"/>
      <point x="422" y="-318" type="qcurve" name="ah03"/>
      <point x="493" y="-218" type="line" name="av01"/>
      <point x="519" y="-236"/>
      <point x="547" y="-249" type="qcurve"/>
      <point x="571" y="-260"/>
      <point x="630" y="-279"/>
      <point x="659" y="-279" type="qcurve"/>
      <point x="696" y="-279" name="av02"/>
      <point x="754" y="-231"/>
      <point x="754" y="-189" type="qcurve" name="ah02"/>
      <point x="754" y="-156"/>
      <point x="721" y="-89"/>
      <point x="701" y="-62" type="qcurve"/>
      <point x="677" y="-30"/>
      <point x="648" y="0" type="qcurve" name="ah01"/>
    </contour>
  </outline>
</glyph>
<glyph name="onesuperior" format="2">
  <advance width="1300"/>
  <unicode hex="00B9"/>
  <outline>
    <contour>
      <point x="233" y="720" type="line" name="hr00"/>
      <point x="233" y="800" type="line"/>
      <point x="405" y="800" type="line"/>
      <point x="405" y="1283" type="line"/>
      <point x="434" y="1396" type="line"/>
      <point x="366" y="1303" type="line"/>
      <point x="260" y="1209" type="line"/>
      <point x="206" y="1270" type="line"/>
      <point x="435" y="1480" type="line"/>
      <point x="510" y="1470" type="line"/>
      <point x="510" y="800" type="line"/>
      <point x="683" y="800" type="line"/>
      <point x="683" y="720" type="line"/>
    </contour>
  </outline>
</glyph>
<glyph name="guillemotright" format="2">
  <advance width="1300"/>
  <unicode hex="00BB"/>
  <outline>
    <contour>
      <point x="700" y="617" type="line" name="dv01"/>
      <point x="700" y="478" type="line" name="dv02"/>
      <point x="232" y="66" type="line" name="av02"/>
      <point x="178" y="201" type="line" name="sv01"/>
      <point x="506" y="490" type="line"/>
      <point x="643" y="550" type="line" name="iv01"/>
      <point x="505" y="610" type="line"/>
      <point x="180" y="901" type="line" name="sv02"/>
      <point x="230" y="1026" type="line" name="av01"/>
    </contour>
    <contour>
      <point x="1200" y="617" type="line" name="dv03"/>
      <point x="1200" y="478" type="line" name="dv04"/>
      <point x="732" y="66" type="line" name="av04"/>
      <point x="678" y="201" type="line" name="sv03"/>
      <point x="1006" y="490" type="line"/>
      <point x="1143" y="550" type="line" name="iv02"/>
      <point x="1005" y="610" type="line"/>
      <point x="680" y="901" type="line" name="sv04"/>
      <point x="730" y="1026" type="line" name="av03"/>
    </contour>
  </outline>
</glyph>
<glyph name="Agrave" format="2">
  <advance width="1300"/>
  <unicode hex="00C0"/>
  <outline>
    <contour>
      <point x="32" y="0" type="line" name="sh02"/>
      <point x="504" y="1300" type="line"/>
      <point x="539" y="1500" type="line"/>
      <point x="717" y="1520" type="line" name="at01"/>
      <point x="1265" y="0" type="line" name="sh04"/>
      <point x="1065" y="0" type="line" name="sh03"/>
      <point x="917" y="450" type="line" name="dv01"/>
      <point x="382" y="450" type="line"/>
      <point x="216" y="0" type="line" name="sh01"/>
    </contour>
    <contour>
      <point x="645" y="1400" type="line" name="ah01"/>
      <point x="600" y="1080" type="line"/>
      <point x="431" y="600" type="line"/>
      <point x="868" y="600" type="line" name="ih01"/>
      <point x="690" y="1080" type="line"/>
    </contour>
    <contour>
      <point x="716" y="1600" type="line" name="av01"/>
      <point x="566" y="1600" type="line"/>
      <point x="341" y="1900" type="line" name="iv01"/>
      <point x="545" y="1920" type="line" name="at02"/>
    </contour>
  </outline>
</glyph>
<glyph name="Adieresis" format="2">
  <advance width="1300"/>
  <unicode hex="00C4"/>
  <outline>
    <contour>
      <point x="32" y="0" type="line" name="sh02"/>
      <point x="504" y="1300" type="line"/>
      <point x="539" y="1500" type="line"/>
      <point x="717" y="1520" type="line" name="at01"/>
      <point x="1265" y="0" type="line" name="sh04"/>
      <point x="1065" y="0" type="line" name="sh03"/>
      <point x="917" y="450" type="line" name="dv01"/>
      <point x="382" y="450" type="line"/>
      <point x="216" y="0" type="line" name="sh01"/>
    </contour>
    <contour>
      <point x="645" y="1400" type="line" name="ah01"/>
      <point x="600" y="1080" type="line"/>
      <point x="431" y="600" type="line"/>
      <point x="868" y="600" type="line" name="ih01"/>
      <point x="690" y="1080" type="line"/>
    </contour>
    <contour>
      <point x="339" y="1800" type="line"/>
      <point x="539" y="1800" type="line"/>
      <point x="539" y="1600" type="line"/>
      <point x="339" y="1600" type="line"/>
    </contour>
    <contour>
      <point x="739" y="1800" type="line"/>
      <point x="939" y="1800" type="line"/>
      <point x="939" y="1600" type="line"/>
      <point x="739" y="1600" type="line"/>
    </contour>
  </outline>
</glyph>
<glyph name="Aring" format="2">
  <advance width="1300"/>
  <unicode hex="00C5"/>
  <outline>
    <contour>
      <point x="32" y="0" type="line" name="sh02"/>
      <point x="504" y="1300" type="line"/>
      <point x="539" y="1500" type="line"/>
      <point x="717" y="1520" type="line" name="at01"/>
      <point x="1265" y="0" type="line" name="sh04"/>
      <point x="1065" y="0" type="line" name="sh03"/>
      <point x="917" y="450" type="line" name="dv01"/>
      <point x="382" y="450" type="line"/>
      <point x="216" y="0" type="line" name="sh01"/>
    </contour>
    <contour>
      <point x="645" y="1400" type="line" name="ah01"/>
      <point x="600" y="1080" type="line"/>
      <point x="431" y="600" type="line"/>
      <point x="868" y="600" type="line" name="ih01"/>
      <point x="690" y="1080" type="line"/>
    </contour>
    <contour>
      <point x="640" y="1879" type="qcurve" name="av01"/>
      <point x="689" y="1879"/>
      <point x="775" y="1842"/>
      <point x="840" y="1777"/>
      <point x="877" y="1691"/>
      <point x="877" y="1642" type="qcurve" name="ah03"/>
      <point x="877" y="1593"/>
      <point x="840" y="1505"/>
      <point x="777" y="1439"/>
      <point x="691" y="1401"/>
      <point x="642" y="1401" type="qcurve" name="av02"/>
      <point x="593" y="1401"/>
      <point x="506" y="1439"/>
      <point x="440" y="1505"/>
      <point x="402" y="1593"/>
      <point x="402" y="1642" type="qcurve" name="ah02"/>
      <point x="402" y="1691"/>
      <point x="440" y="1777"/>
      <point x="504" y="1842"/>
      <point x="591" y="1879"/>
    </contour>
    <contour>
      <point x="641" y="1518" type="qcurve" name="sv01"/>
      <point x="666" y="1518"/>
      <point x="710" y="1538"/>
      <point x="742" y="1571"/>
      <point x="761" y="1616"/>
      <point x="761" y="1641" type="qcurve" name="sh05"/>
      <point x="761" y="1666"/>
      <point x="742" y="1710"/>
      <point x="709" y="1743"/>
      <point x="665" y="1762"/>
      <point x="640" y="1762" type="qcurve" name="sv02"/>
      <point x="615" y="1762"/>
      <point x="571" y="1743"/>
      <point x="538" y="1710"/>
      <point x="519" y="1666"/>
      <point x="519" y="1641" type="qcurve" name="sh06"/>
      <point x="519" y="1616"/>
      <point x="538" y="1571"/>
      <point x="571" y="1538"/>
      <point x="616" y="1518"/>
    </contour>
  </outline>
</glyph>
<glyph name="Ccedilla" format="2">
  <advance width="1300"/>
  <unicode hex="00C7"/>
  <outline>
    <contour>
      <point x="1137" y="104" type="line" name="fh01"/>
      <point x="1096" y="71"/>
      <point x="1012" y="25"/>
      <point x="920" y="-4"/>
      <point x="818" y="-17"/>
      <point x="759" y="-17" type="qcurve" name="ab01"/>
      <point x="663" y="-17"/>
      <point x="489" y="40"/>
      <point x="340" y="143"/>
      <point x="220" y="287"/>
      <point x="136" y="462"/>
      <point x="90" y="662"/>
      <point x="90" y="770" type="qcurve" name="dh01"/>
      <point x="90" y="921"/>
      <point x="176" y="1192"/>
      <point x="346" y="1397"/>
      <point x="597" y="1517"/>
      <point x="762" y="1517" type="qcurve" name="at01"/>
      <point x="877" y="1517"/>
      <point x="1062" y="1444"/>
      <point x="1134" y="1375" type="qcurve" name="fh02"/>
      <point x="1044" y="1268" type="line" name="fh03"/>
      <point x="1020" y="1284"/>
      <point x="966" y="1313"/>
      <point x="901" y="1335"/>
      <point x="824" y="1348"/>
      <point x="778" y="1348" type="qcurve" name="sv01"/>
      <point x="656" y="1348"/>
      <point x="475" y="1256"/>
      <point x="355" y="1099"/>
      <point x="296" y="890"/>
      <point x="296" y="773" type="qcurve" name="dh02"/>
      <point x="296" y="700"/>
      <point x="326" y="552"/>
      <point x="383" y="414"/>
      <point x="467" y="294"/>
      <point x="576" y="204"/>
      <point x="708" y="153"/>
      <point x="785" y="153" type="qcurve" name="sv02"/>
      <point x="830" y="153"/>
      <point x="898" y="161"/>
      <point x="959" y="179"/>
      <point x="1021" y="208"/>
      <point x="1060" y="230" type="qcurve" name="fh04"/>
    </contour>
    <contour>
      <point x="818" y="0" type="line" name="sh01"/>
      <point x="841" y="-27"/>
      <point x="859" y="-59" type="qcurve"/>
      <point x="875" y="-86"/>
      <point x="901" y="-158"/>
      <point x="901" y="-198" type="qcurve" name="sh02"/>
      <point x="901" y="-242"/>
      <point x="864" y="-318"/>
      <point x="802" y="-375"/>
      <point x="721" y="-407"/>
      <point x="677" y="-407" type="qcurve"/>
      <point x="627" y="-407"/>
      <point x="534" y="-380"/>
      <point x="497" y="-363" type="qcurve"/>
      <point x="454" y="-344"/>
      <point x="416" y="-318" type="qcurve" name="ah03"/>
      <point x="487" y="-218" type="line" name="av01"/>
      <point x="513" y="-236"/>
      <point x="541" y="-249" type="qcurve"/>
      <point x="565" y="-260"/>
      <point x="624" y="-279"/>
      <point x="653" y="-279" type="qcurve"/>
      <point x="690" y="-279" name="av02"/>
      <point x="748" y="-231"/>
      <point x="748" y="-189" type="qcurve" name="ah02"/>
      <point x="748" y="-156"/>
      <point x="715" y="-89"/>
      <point x="695" y="-62" type="qcurve"/>
      <point x="671" y="-30"/>
      <point x="642" y="0" type="qcurve" name="ah01"/>
    </contour>
  </outline>
</glyph>
<glyph name="Egrave" format="2">
  <advance width="1300"/>
  <unicode hex="00C8"/>
  <outline>
    <contour>
      <point x="1135" y="160" type="line" name="dh04"/>
      <point x="1115" y="0" type="line" name="ab01"/>
      <point x="195" y="0" type="line" name="ab02"/>
      <point x="210" y="200" type="line" name="dh01"/>
      <point x="210" y="1290" type="line"/>
      <point x="180" y="1500" type="line" name="at01"/>
      <point x="1100" y="1500" type="line" name="at02"/>
      <point x="1100" y="1340" type="line"/>
      <point x="375" y="1340" type="line" name="sv01"/>
      <point x="395" y="1150" type="line" name="sh01"/>
      <point x="395" y="885" type="line"/>
      <point x="1030" y="885" type="line" name="dv01"/>
      <point x="1030" y="740" type="line" name="dh03"/>
      <point x="395" y="740" type="line"/>
      <point x="395" y="340" type="line" name="dh02"/>
      <point x="385" y="160" type="line"/>
    </contour>
    <contour>
      <point x="760" y="1600" type="line" name="av01"/>
      <point x="610" y="1600" type="line"/>
      <point x="385" y="1900" type="line" name="iv01"/>
      <point x="589" y="1920" type="line" name="at03"/>
    </contour>
  </outline>
</glyph>
<glyph name="Edieresis" format="2">
  <advance width="1300"/>
  <unicode hex="00CB"/>
  <outline>
    <contour>
      <point x="1135" y="160" type="line" name="dh04"/>
      <point x="1115" y="0" type="line" name="ab01"/>
      <point x="195" y="0" type="line" name="ab02"/>
      <point x="210" y="200" type="line" name="dh01"/>
      <point x="210" y="1290" type="line"/>
      <point x="180" y="1500" type="line" name="at01"/>
      <point x="1100" y="1500" type="line" name="at02"/>
      <point x="1100" y="1340" type="line"/>
      <point x="375" y="1340" type="line" name="sv01"/>
      <point x="395" y="1150" type="line" name="sh01"/>
      <point x="395" y="885" type="line"/>
      <point x="1030" y="885" type="line" name="dv01"/>
      <point x="1030" y="740" type="line" name="dh03"/>
      <point x="395" y="740" type="line"/>
      <point x="395" y="340" type="line" name="dh02"/>
      <point x="385" y="160" type="line"/>
    </contour>
    <contour>
      <point x="350" y="1800" type="line"/>
      <point x="550" y="1800" type="line"/>
      <point x="550" y="1600" type="line"/>
      <point x="350" y="1600" type="line"/>
    </contour>
    <contour>
      <point x="750" y="1800" type="line"/>
      <point x="950" y="1800" type="line"/>
      <point x="950" y="1600" type="line"/>
      <point x="750" y="1600" type="line"/>
    </contour>
  </outline>
</glyph>
<glyph name="Iacute" format="2">
  <advance width="1300"/>
  <unicode hex="00CD"/>
  <outline>
    <contour>
      <point x="206" y="1500" type="line" name="at01"/>
      <point x="1106" y="1500" type="line" name="ah01"/>
      <point x="1106" y="1340" type="line" name="sv01"/>
      <point x="748" y="1340" type="line" name="dh02"/>
      <point x="748" y="160" type="line" name="dh04"/>
      <point x="1126" y="160" type="line" name="sh02"/>
      <point x="1106" y="0" type="line" name="ab01"/>
      <point x="206" y="0" type="line" name="sh01"/>
      <point x="206" y="160" type="line" name="sv02"/>
      <point x="562" y="160" type="line" name="dh03"/>
      <point x="562" y="1340" type="line" name="dh01"/>
      <point x="186" y="1340" type="line" name="sh03"/>
    </contour>
    <contour>
      <point x="615" y="1900" type="line" name="ah02"/>
      <point x="845" y="1920" type="line" name="sh04"/>
      <point x="605" y="1600" type="line" name="av01"/>
      <point x="455" y="1600" type="line"/>
    </contour>
  </outline>
</glyph>
<glyph name="Icircumflex" format="2">
  <advance width="1300"/>
  <unicode hex="00CE"/>
  <outline>
    <contour>
      <point x="206" y="1500" type="line" name="at01"/>
      <point x="1106" y="1500" type="line" name="ah01"/>
      <point x="1106" y="1340" type="line" name="sv01"/>
      <point x="748" y="1340" type="line" name="dh02"/>
      <point x="748" y="160" type="line" name="dh04"/>
      <point x="1126" y="160" type="line" name="sh02"/>
      <point x="1106" y="0" type="line" name="ab01"/>
      <point x="206" y="0" type="line" name="sh01"/>
      <point x="206" y="160" type="line" name="sv02"/>
      <point x="562" y="160" type="line" name="dh03"/>
      <point x="562" y="1340" type="line" name="dh01"/>
      <point x="186" y="1340" type="line" name="sh03"/>
    </contour>
    <contour>
      <point x="941" y="1624" type="line" name="av01"/>
      <point x="791" y="1624" type="line"/>
      <point x="691" y="1776" type="line"/>
      <point x="661" y="1864" type="line" name="iv01"/>
      <point x="631" y="1777" type="line"/>
      <point x="530" y="1624" type="line" name="av02"/>
      <point x="380" y="1624" type="line"/>
      <point x="556" y="1904" type="line"/>
      <point x="756" y="1924" type="line" name="at02"/>
    </contour>
  </outline>
</glyph>
<glyph name="Eth" format="2">
  <advance width="1300"/>
  <unicode hex="00D0"/>
  <outline>
    <contour>
      <point x="0" y="855" type="line" name="hr00"/>
      <point x="200" y="855" type="line"/>
      <point x="200" y="1290" type="line"/>
      <point x="170" y="1500" type="line"/>
      <point x="253" y="1508"/>
      <point x="411" y="1511"/>
      <point x="500" y="1511" type="curve" smooth="yes"/>
      <point x="924" y="1511"/>
      <point x="1240" y="1310"/>
      <point x="1240" y="810" type="curve" smooth="yes"/>
      <point x="1240" y="227"/>
      <point x="890" y="0"/>
      <point x="491" y="0" type="curve" smooth="yes"/>
      <point x="200" y="0" type="line"/>
      <point x="200" y="700" type="line"/>
      <point x="0" y="700" type="line"/>
    </contour>
    <contour>
      <point x="410" y="1150" type="line"/>
      <point x="410" y="855" type="line"/>
      <point x="600" y="855" type="line"/>
      <point x="600" y="700" type="line"/>
      <point x="410" y="700" type="line"/>
      <point x="410" y="160" type="line"/>
      <point x="430" y="160" type="line" smooth="yes"/>
      <point x="1010" y="160"/>
      <point x="1030" y="550"/>
      <point x="1030" y="780" type="curve" smooth="yes"/>
      <point x="1030" y="1120"/>
      <point x="935" y="1358"/>
      <point x="491" y="1358" type="curve" smooth="yes"/>
      <point x="470" y="1358"/>
      <point x="444" y="1357"/>
      <point x="423" y="1354" type="curve"/>
      <point x="385" y="1350" type="line"/>
    </contour>
  </outline>
</glyph>
<glyph name="Odieresis" format="2">
  <advance width="1300"/>
  <unicode hex="00D6"/>
  <outline>
    <contour>
      <point x="624" y="-17" type="qcurve" name="ab01"/>
      <point x="534" y="-17"/>
      <point x="383" y="38"/>
      <point x="260" y="139"/>
      <point x="168" y="279"/>
      <point x="105" y="450"/>
      <point x="74" y="645"/>
      <point x="74" y="750" type="qcurve" name="sh01"/>
      <point x="74" y="855"/>
      <point x="104" y="1050"/>
      <point x="165" y="1221"/>
      <point x="256" y="1361"/>
      <point x="378" y="1462"/>
      <point x="532" y="1517"/>
      <point x="624" y="1517" type="qcurve" name="at01"/>
      <point x="714" y="1517"/>
      <point x="865" y="1462"/>
      <point x="988" y="1361"/>
      <point x="1080" y="1221"/>
      <point x="1143" y="1050"/>
      <point x="1174" y="855"/>
      <point x="1174" y="750" type="qcurve" name="sh02"/>
      <point x="1174" y="645"/>
      <point x="1144" y="450"/>
      <point x="1083" y="279"/>
      <point x="992" y="139"/>
      <point x="870" y="38"/>
      <point x="716" y="-17"/>
    </contour>
    <contour>
      <point x="966" y="719" type="qcurve" name="ah01"/>
      <point x="966" y="789"/>
      <point x="957" y="935"/>
      <point x="930" y="1074"/>
      <point x="882" y="1197"/>
      <point x="805" y="1288"/>
      <point x="694" y="1342"/>
      <point x="618" y="1342" type="qcurve" name="sv01"/>
      <point x="546" y="1342"/>
      <point x="440" y="1294"/>
      <point x="366" y="1211"/>
      <point x="318" y="1100"/>
      <point x="292" y="976"/>
      <point x="282" y="846"/>
      <point x="282" y="785" type="qcurve" name="sh03"/>
      <point x="282" y="714"/>
      <point x="291" y="566"/>
      <point x="318" y="427"/>
      <point x="366" y="304"/>
      <point x="444" y="212"/>
      <point x="554" y="158"/>
      <point x="630" y="158" type="qcurve" name="sv02"/>
      <point x="701" y="158"/>
      <point x="806" y="207"/>
      <point x="881" y="292"/>
      <point x="929" y="403"/>
      <point x="956" y="528"/>
      <point x="966" y="658"/>
    </contour>
    <contour>
      <point x="300" y="1800" type="line"/>
      <point x="500" y="1800" type="line"/>
      <point x="500" y="1600" type="line"/>
      <point x="300" y="1600" type="line"/>
    </contour>
    <contour>
      <point x="700" y="1800" type="line"/>
      <point x="900" y="1800" type="line"/>
      <point x="900" y="1600" type="line"/>
      <point x="700" y="1600" type="line"/>
    </contour>
  </outline>
</glyph>
<glyph name="multiply" format="2">
  <advance width="1300"/>
  <unicode hex="00D7"/>
  <outline>
    <contour>
      <point x="750" y="627" type="line" name="iv01"/>
      <point x="1175" y="203" type="line" name="ih02"/>
      <point x="1051" y="102" type="line" name="av02"/>
      <point x="676" y="477" type="line"/>
      <point x="618" y="576" type="line" name="ih01"/>
      <point x="600" y="477" type="line"/>
      <point x="225" y="102" type="line" name="sh01"/>
      <point x="100" y="203" type="line" name="ah01"/>
      <point x="526" y="627" type="line" name="iv02"/>
      <point x="100" y="1052" type="line" name="ih04"/>
      <point x="225" y="1153" type="line" name="av01"/>
      <point x="600" y="777" type="line"/>
      <point x="658" y="679" type="line" name="ih03"/>
      <point x="676" y="777" type="line"/>
      <point x="1051" y="1153" type="line" name="sh02"/>
      <point x="1175" y="1052" type="line" name="ah02"/>
    </contour>
  </outline>
</glyph>
<glyph name="Yacute" format="2">
  <advance width="1300"/>
  <unicode hex="00DD"/>
  <outline>
    <contour>
      <point x="660" y="935" type="line" name="fh01"/>
      <point x="948" y="1500" type="line" name="sh01"/>
      <point x="1140" y="1500" type="line" name="at01"/>
      <point x="705" y="646" type="line"/>
      <point x="705" y="0" type="line" name="dh02"/>
      <point x="495" y="0" type="line" name="dh01"/>
      <point x="495" y="645" type="line"/>
      <point x="59" y="1500" type="line" name="fh02"/>
      <point x="263" y="1520" type="line" name="sh02"/>
      <point x="551" y="954" type="line" name="fh03"/>
      <point x="630" y="705" type="line" name="ah01"/>
    </contour>
    <contour>
      <point x="600" y="1900" type="line" name="ah02"/>
      <point x="830" y="1920" type="line" name="sh03"/>
      <point x="590" y="1600" type="line" name="av01"/>
      <point x="440" y="1600" type="line"/>
    </contour>
  </outline>
</glyph>
<glyph name="ccedilla" format="2">
  <advance width="1300"/>
  <unicode hex="00E7"/>
  <outline>
    <contour>
      <point x="1006" y="878" type="line" name="hr00"/>
      <point x="967" y="913"/>
      <point x="829" y="957"/>
      <point x="723" y="957" type="qcurve" name="sv01"/>
      <point x="639" y="957"/>
      <point x="506" y="894"/>
      <point x="413" y="786"/>
      <point x="364" y="643"/>
      <point x="364" y="564" type="qcurve" name="sh02"/>
      <point x="364" y="482"/>
      <point x="411" y="333"/>
      <point x="504" y="219"/>
      <point x="642" y="152"/>
      <point x="734" y="152" type="qcurve" name="sv02"/>
      <point x="786" y="152"/>
      <point x="882" y="176" name="mv01"/>
      <point x="960" y="209"/>
      <point x="1015" y="242" name="mh01"/>
      <point x="1027" y="252" type="qcurve" name="mv02"/>
      <point x="1099" y="111" type="line"/>
      <point x="1084" y="98"/>
      <point x="1024" y="55"/>
      <point x="931" y="13"/>
      <point x="804" y="-17"/>
      <point x="720" y="-17" type="qcurve" name="ab01"/>
      <point x="595" y="-17"/>
      <point x="392" y="82"/>
      <point x="248" y="247"/>
      <point x="169" y="461"/>
      <point x="169" y="577" type="qcurve" name="sh01"/>
      <point x="169" y="681"/>
      <point x="246" y="876"/>
      <point x="390" y="1026"/>
      <point x="596" y="1117"/>
      <point x="725" y="1117" type="qcurve" name="at01"/>
      <point x="847" y="1117"/>
      <point x="1042" y="1060"/>
      <point x="1105" y="991" type="qcurve"/>
    </contour>
    <contour>
      <point x="810" y="0" type="line" name="sh03"/>
      <point x="833" y="-27"/>
      <point x="851" y="-59" type="qcurve"/>
      <point x="867" y="-86"/>
      <point x="893" y="-158"/>
      <point x="893" y="-198" type="qcurve" name="sh04"/>
      <point x="893" y="-242"/>
      <point x="856" y="-318"/>
      <point x="794" y="-375"/>
      <point x="713" y="-407"/>
      <point x="669" y="-407" type="qcurve"/>
      <point x="619" y="-407"/>
      <point x="526" y="-380"/>
      <point x="489" y="-363" type="qcurve"/>
      <point x="446" y="-344"/>
      <point x="408" y="-318" type="qcurve" name="ah03"/>
      <point x="479" y="-218" type="line" name="av01"/>
      <point x="505" y="-236"/>
      <point x="533" y="-249" type="qcurve"/>
      <point x="557" y="-260"/>
      <point x="616" y="-279"/>
      <point x="645" y="-279" type="qcurve"/>
      <point x="682" y="-279" name="av02"/>
      <point x="740" y="-231"/>
      <point x="740" y="-189" type="qcurve" name="ah02"/>
      <point x="740" y="-156"/>
      <point x="707" y="-89"/>
      <point x="687" y="-62" type="qcurve"/>
      <point x="663" y="-30"/>
      <point x="634" y="0" type="qcurve" name="ah01"/>
    </contour>
  </outline>
</glyph>
<glyph name="edieresis" format="2">
  <advance width="1300"/>
  <unicode hex="00EB"/>
  <outline>
    <contour>
      <point x="1034" y="129" type="line" name="hr00"/>
      <point x="1003" y="97"/>
      <point x="929" y="43"/>
      <point x="839" y="4"/>
      <point x="730" y="-17"/>
      <point x="663" y="-17" type="qcurve" name="ih01"/>
      <point x="530" y="-17"/>
      <point x="336" y="77"/>
      <point x="210" y="235"/>
      <point x="150" y="439"/>
      <point x="150" y="550" type="qcurve" name="sh01"/>
      <point x="150" y="621"/>
      <point x="179" y="760"/>
      <point x="234" y="886"/>
      <point x="317" y="994"/>
      <point x="426" y="1072"/>
      <point x="559" y="1117"/>
      <point x="638" y="1117" type="qcurve" name="ih02"/>
      <point x="746" y="1117"/>
      <point x="920" y="1047"/>
      <point x="1042" y="921"/>
      <point x="1108" y="744"/>
      <point x="1108" y="638" type="qcurve" name="dh02"/>
      <point x="1108" y="607"/>
      <point x="1104" y="533"/>
      <point x="1100" y="500" type="qcurve" name="ih04"/>
      <point x="340" y="500" type="line" name="sh02"/>
      <point x="340" y="423"/>
      <point x="388" y="292"/>
      <point x="471" y="197"/>
      <point x="584" y="143"/>
      <point x="650" y="143" type="qcurve" name="ih03"/>
      <point x="714" y="143"/>
      <point x="805" y="162"/>
      <point x="868" y="190"/>
      <point x="910" y="222"/>
      <point x="925" y="236" type="qcurve"/>
    </contour>
    <contour>
      <point x="932" y="650" type="line" name="dh01"/>
      <point x="932" y="694" type="line"/>
      <point x="932" y="751"/>
      <point x="887" y="847"/>
      <point x="810" y="918"/>
      <point x="709" y="958"/>
      <point x="653" y="958" type="qcurve" name="sv01"/>
      <point x="586" y="958"/>
      <point x="485" y="915"/>
      <point x="413" y="848"/>
      <point x="369" y="768"/>
      <point x="359" y="732" type="qcurve"/>
      <point x="300" y="618" type="line" name="ih05"/>
      <point x="485" y="650" type="line"/>
    </contour>
    <contour>
      <point x="400" y="1500" type="line"/>
      <point x="600" y="1500" type="line"/>
      <point x="600" y="1300" type="line"/>
      <point x="400" y="1300" type="line"/>
    </contour>
    <contour>
      <point x="800" y="1500" type="line"/>
      <point x="1000" y="1500" type="line"/>
      <point x="1000" y="1300" type="line"/>
      <point x="800" y="1300" type="line"/>
    </contour>
  </outline>
</glyph>
<glyph name="icircumflex" format="2">
  <advance width="1300"/>
  <unicode hex="00EE"/>
  <outline>
    <contour>
      <point x="711" y="393" type="line"/>
      <point x="711" y="254"/>
      <point x="742" y="153"/>
      <point x="841" y="153" type="curve" smooth="yes"/>
      <point x="973" y="153"/>
      <point x="1097" y="205"/>
      <point x="1112" y="210" type="curve"/>
      <point x="1151" y="56" type="line"/>
      <point x="1136" y="48"/>
      <point x="1007" y="-17"/>
      <point x="831" y="-17" type="curve" smooth="yes"/>
      <point x="570" y="-17"/>
      <point x="521" y="165"/>
      <point x="521" y="403" type="curve" smooth="yes"/>
      <point x="521" y="970" type="line"/>
      <point x="421" y="940" type="line"/>
      <point x="220" y="940" type="line"/>
      <point x="200" y="1100" type="line"/>
      <point x="711" y="1100" type="line"/>
      <point x="711" y="501" type="line"/>
    </contour>
    <contour>
      <point x="881" y="1220" type="line" name="hr01"/>
      <point x="731" y="1220" type="line"/>
      <point x="631" y="1372" type="line"/>
      <point x="601" y="1460" type="line"/>
      <point x="571" y="1373" type="line"/>
      <point x="470" y="1220" type="line"/>
      <point x="320" y="1220" type="line"/>
      <point x="496" y="1500" type="line"/>
      <point x="696" y="1520" type="line"/>
    </contour>
  </outline>
</glyph>
<glyph name="idieresis" format="2">
  <advance width="1300"/>
  <unicode hex="00EF"/>
  <outline>
    <contour>
      <point x="711" y="393" type="line" name="hr00"/>
      <point x="711" y="254"/>
      <point x="742" y="153"/>
      <point x="841" y="153" type="curve" smooth="yes"/>
      <point x="973" y="153"/>
      <point x="1097" y="205"/>
      <point x="1112" y="210" type="curve"/>
      <point x="1151" y="56" type="line"/>
      <point x="1136" y="48"/>
      <point x="1007" y="-17"/>
      <point x="831" y="-17" type="curve" smooth="yes"/>
      <point x="570" y="-17"/>
      <point x="521" y="165"/>
      <point x="521" y="403" type="curve" smooth="yes"/>
      <point x="521" y="970" type="line"/>
      <point x="421" y="940" type="line"/>
      <point x="220" y="940" type="line"/>
      <point x="200" y="1100" type="line"/>
      <point x="711" y="1100" type="line"/>
      <point x="711" y="501" type="line"/>
    </contour>
    <contour>
      <point x="300" y="1500" type="line"/>
      <point x="500" y="1500" type="line"/>
      <point x="500" y="1300" type="line"/>
      <point x="300" y="1300" type="line"/>
    </contour>
    <contour>
      <point x="700" y="1500" type="line"/>
      <point x="900" y="1500" type="line"/>
      <point x="900" y="1300" type="line"/>
      <point x="700" y="1300" type="line"/>
    </contour>
  </outline>
</glyph>
<glyph name="ntilde" format="2">
  <advance width="1300"/>
  <unicode hex="00F1"/>
  <outline>
    <contour>
      <point x="390" y="0" type="line" name="sh02"/>
      <point x="210" y="0" type="line" name="sh01"/>
      <point x="210" y="1100" type="line"/>
      <point x="390" y="1120" type="line" name="sh03"/>
      <point x="390" y="927" type="line" name="ih01"/>
      <point x="451" y="1044" type="line"/>
      <point x="469" y="1056"/>
      <point x="518" y="1082"/>
      <point x="588" y="1103"/>
      <point x="684" y="1117"/>
      <point x="749" y="1117" type="qcurve" name="av01"/>
      <point x="828" y="1117"/>
      <point x="955" y="1066"/>
      <point x="1042" y="970"/>
      <point x="1089" y="834"/>
      <point x="1089" y="750" type="qcurve"/>
      <point x="1089" y="0" type="line" name="sh04"/>
      <point x="909" y="0" type="line" name="ah01"/>
      <point x="909" y="750" type="line"/>
      <point x="909" y="804"/>
      <point x="874" y="882"/>
      <point x="812" y="933"/>
      <point x="730" y="957"/>
      <point x="684" y="957" type="qcurve" name="sv01"/>
      <point x="636" y="957"/>
      <point x="547" y="933"/>
      <point x="471" y="896"/>
      <point x="410" y="853"/>
      <point x="390" y="834" type="qcurve"/>
    </contour>
    <contour>
      <point x="387" y="1275" type="line"/>
      <point x="391" y="1315"/>
      <point x="422" y="1391"/>
      <point x="471" y="1449"/>
      <point x="533" y="1484"/>
      <point x="569" y="1484" type="qcurve"/>
      <point x="608" y="1484"/>
      <point x="676" y="1456"/>
      <point x="738" y="1422"/>
      <point x="798" y="1394"/>
      <point x="829" y="1394" type="qcurve"/>
      <point x="850" y="1394"/>
      <point x="882" y="1415"/>
      <point x="904" y="1446"/>
      <point x="918" y="1484"/>
      <point x="921" y="1502" type="qcurve"/>
      <point x="1017" y="1498" type="line"/>
      <point x="1014" y="1454"/>
      <point x="981" y="1372"/>
      <point x="930" y="1309"/>
      <point x="861" y="1271"/>
      <point x="822" y="1271" type="qcurve"/>
      <point x="790" y="1271"/>
      <point x="728" y="1299"/>
      <point x="664" y="1332"/>
      <point x="598" y="1360"/>
      <point x="563" y="1360" type="qcurve"/>
      <point x="545" y="1360"/>
      <point x="516" y="1344"/>
      <point x="493" y="1318"/>
      <point x="477" y="1287"/>
      <point x="473" y="1272" type="qcurve"/>
    </contour>
  </outline>
</glyph>
<glyph name="oacute" format="2">
  <advance width="1300"/>
  <unicode hex="00F3"/>
  <outline>
    <contour>
      <point x="649" y="-17" type="qcurve" name="ab01"/>
      <point x="538" y="-17"/>
      <point x="353" y="70"/>
      <point x="219" y="223"/>
      <point x="144" y="431"/>
      <point x="144" y="553" type="qcurve" name="sh01"/>
      <point x="144" y="674"/>
      <point x="216" y="881"/>
      <point x="348" y="1032"/>
      <point x="535" y="1117"/>
      <point x="649" y="1117" type="qcurve" name="av01"/>
      <point x="760" y="1117"/>
      <point x="942" y="1032"/>
      <point x="1073" y="881"/>
      <point x="1145" y="674"/>
      <point x="1145" y="553" type="qcurve" name="sh02"/>
      <point x="1145" y="431"/>
      <point x="1076" y="223"/>
      <point x="947" y="70"/>
      <point x="763" y="-17"/>
    </contour>
    <contour>
      <point x="955" y="526" type="qcurve" name="ah01"/>
      <point x="955" y="607"/>
      <point x="921" y="763"/>
      <point x="847" y="886"/>
      <point x="729" y="962"/>
      <point x="645" y="962" type="qcurve" name="sv01"/>
      <point x="565" y="962"/>
      <point x="447" y="896"/>
      <point x="371" y="786"/>
      <point x="334" y="646"/>
      <point x="334" y="572" type="qcurve" name="sh03"/>
      <point x="334" y="491"/>
      <point x="371" y="335"/>
      <point x="448" y="213"/>
      <point x="569" y="138"/>
      <point x="653" y="138" type="qcurve" name="sv02"/>
      <point x="732" y="138"/>
      <point x="847" y="204"/>
      <point x="920" y="313"/>
      <point x="955" y="452"/>
    </contour>
    <contour>
      <point x="700" y="1500" type="line" name="ah02"/>
      <point x="930" y="1520" type="line" name="sh04"/>
      <point x="690" y="1200" type="line" name="av02"/>
      <point x="540" y="1200" type="line"/>
    </contour>
  </outline>
</glyph>
<glyph name="otilde" format="2">
  <advance width="1300"/>
  <unicode hex="00F5"/>
  <outline>
    <contour>
      <point x="649" y="-17" type="qcurve" name="ab01"/>
      <point x="538" y="-17"/>
      <point x="353" y="70"/>
      <point x="219" y="223"/>
      <point x="144" y="431"/>
      <point x="144" y="553" type="qcurve" name="sh01"/>
      <point x="144" y="674"/>
      <point x="216" y="881"/>
      <point x="348" y="1032"/>
      <point x="535" y="1117"/>
      <point x="649" y="1117" type="qcurve" name="av01"/>
      <point x="760" y="1117"/>
      <point x="942" y="1032"/>
      <point x="1073" y="881"/>
      <point x="1145" y="674"/>
      <point x="1145" y="553" type="qcurve" name="sh02"/>
      <point x="1145" y="431"/>
      <point x="1076" y="223"/>
      <point x="947" y="70"/>
      <point x="763" y="-17"/>
    </contour>
    <contour>
      <point x="955" y="526" type="qcurve" name="ah01"/>
      <point x="955" y="607"/>
      <point x="921" y="763"/>
      <point x="847" y="886"/>
      <point x="729" y="962"/>
      <point x="645" y="962" type="qcurve" name="sv01"/>
      <point x="565" y="962"/>
      <point x="447" y="896"/>
      <point x="371" y="786"/>
      <point x="334" y="646"/>
      <point x="334" y="572" type="qcurve" name="sh03"/>
      <point x="334" y="491"/>
      <point x="371" y="335"/>
      <point x="448" y="213"/>
      <point x="569" y="138"/>
      <point x="653" y="138" type="qcurve" name="sv02"/>
      <point x="732" y="138"/>
      <point x="847" y="204"/>
      <point x="920" y="313"/>
      <point x="955" y="452"/>
    </contour>
    <contour>
      <point x="337" y="1275" type="line"/>
      <point x="341" y="1315"/>
      <point x="372" y="1391"/>
      <point x="421" y="1449"/>
      <point x="483" y="1484"/>
      <point x="519" y="1484" type="qcurve"/>
      <point x="558" y="1484"/>
      <point x="626" y="1456"/>
      <point x="688" y="1422"/>
      <point x="748" y="1394"/>
      <point x="779" y="1394" type="qcurve"/>
      <point x="800" y="1394"/>
      <point x="832" y="1415"/>
      <point x="854" y="1446"/>
      <point x="868" y="1484"/>
      <point x="871" y="1502" type="qcurve"/>
      <point x="967" y="1498" type="line"/>
      <point x="964" y="1454"/>
      <point x="931" y="1372"/>
      <point x="880" y="1309"/>
      <point x="811" y="1271"/>
      <point x="772" y="1271" type="qcurve"/>
      <point x="740" y="1271"/>
      <point x="678" y="1299"/>
      <point x="614" y="1332"/>
      <point x="548" y="1360"/>
      <point x="513" y="1360" type="qcurve"/>
      <point x="495" y="1360"/>
      <point x="466" y="1344"/>
      <point x="443" y="1318"/>
      <point x="427" y="1287"/>
      <point x="423" y="1272" type="qcurve"/>
    </contour>
  </outline>
</glyph>
<glyph name="ugrave" format="2">
  <advance width="1300"/>
  <unicode hex="00F9"/>
  <outline>
    <contour>
      <point x="930" y="1100" type="line" name="ah01"/>
      <point x="1110" y="1120" type="line" name="sh01"/>
      <point x="1110" y="0" type="line" name="ab01"/>
      <point x="930" y="0" type="line" name="sh02"/>
      <point x="930" y="180" type="line" name="ih01"/>
      <point x="869" y="73" type="line"/>
      <point x="860" y="62"/>
      <point x="820" y="32"/>
      <point x="760" y="3"/>
      <point x="682" y="-17"/>
      <point x="634" y="-17" type="qcurve" name="ab02"/>
      <point x="513" y="-17"/>
      <point x="350" y="58"/>
      <point x="252" y="182"/>
      <point x="210" y="344"/>
      <point x="210" y="430" type="qcurve" name="sh03"/>
      <point x="210" y="1100" type="line"/>
      <point x="390" y="1120" type="line" name="av01"/>
      <point x="390" y="430" type="line" name="sh04"/>
      <point x="390" y="365"/>
      <point x="416" y="261"/>
      <point x="479" y="187"/>
      <point x="584" y="148"/>
      <point x="662" y="148" type="qcurve" name="sv01"/>
      <point x="720" y="148"/>
      <point x="810" y="181"/>
      <point x="877" y="228"/>
      <point x="920" y="280"/>
      <point x="930" y="300" type="qcurve"/>
    </contour>
    <contour>
      <point x="787" y="1200" type="line" name="av02"/>
      <point x="637" y="1200" type="line"/>
      <point x="412" y="1500" type="line" name="iv01"/>
      <point x="616" y="1520" type="line" name="at01"/>
    </contour>
  </outline>
</glyph>
<glyph name="udieresis" format="2">
  <advance width="1300"/>
  <unicode hex="00FC"/>
  <outline>
    <contour>
      <point x="930" y="1100" type="line" name="ah01"/>
      <point x="1110" y="1120" type="line" name="sh01"/>
      <point x="1110" y="0" type="line" name="ab01"/>
      <point x="930" y="0" type="line" name="sh02"/>
      <point x="930" y="180" type="line" name="ih01"/>
      <point x="869" y="73" type="line"/>
      <point x="860" y="62"/>
      <point x="820" y="32"/>
      <point x="760" y="3"/>
      <point x="682" y="-17"/>
      <point x="634" y="-17" type="qcurve" name="ab02"/>
      <point x="513" y="-17"/>
      <point x="350" y="58"/>
      <point x="252" y="182"/>
      <point x="210" y="344"/>
      <point x="210" y="430" type="qcurve" name="sh03"/>
      <point x="210" y="1100" type="line"/>
      <point x="390" y="1120" type="line" name="av01"/>
      <point x="390" y="430" type="line" name="sh04"/>
      <point x="390" y="365"/>
      <point x="416" y="261"/>
      <point x="479" y="187"/>
      <point x="584" y="148"/>
      <point x="662" y="148" type="qcurve" name="sv01"/>
      <point x="720" y="148"/>
      <point x="810" y="181"/>
      <point x="877" y="228"/>
      <point x="920" y="280"/>
      <point x="930" y="300" type="qcurve"/>
    </contour>
    <contour>
      <point x="350" y="1500" type="line"/>
      <point x="550" y="1500" type="line"/>
      <point x="550" y="1300" type="line"/>
      <point x="350" y="1300" type="line"/>
    </contour>
    <contour>
      <point x="750" y="1500" type="line"/>
      <point x="950" y="1500" type="line"/>
      <point x="950" y="1300" type="line"/>
      <point x="750" y="1300" type="line"/>
    </contour>
  </outline>
</glyph>
<glyph name="thorn" format="2">
  <advance width="1300"/>
  <unicode hex="00FE"/>
  <outline>
    <contour>
      <point x="669" y="-17" type="qcurve" name="ab01"/>
      <point x="558" y="-17"/>
      <point x="373" y="70"/>
      <point x="239" y="223"/>
      <point x="164" y="431"/>
      <point x="164" y="553" type="qcurve" name="sh01"/>
      <point x="164" y="674"/>
      <point x="236" y="881"/>
      <point x="368" y="1032"/>
      <point x="555" y="1117"/>
      <point x="669" y="1117" type="qcurve" name="av01"/>
      <point x="780" y="1117"/>
      <point x="962" y="1032"/>
      <point x="1093" y="881"/>
      <point x="1165" y="674"/>
      <point x="1165" y="553" type="qcurve" name="sh02"/>
      <point x="1165" y="431"/>
      <point x="1096" y="223"/>
      <point x="967" y="70"/>
      <point x="783" y="-17"/>
    </contour>
    <contour>
      <point x="975" y="526" type="qcurve" name="ah01"/>
      <point x="975" y="607"/>
      <point x="941" y="763"/>
      <point x="867" y="886"/>
      <point x="749" y="962"/>
      <point x="665" y="962" type="qcurve" name="sv01"/>
      <point x="585" y="962"/>
      <point x="467" y="896"/>
      <point x="391" y="786"/>
      <point x="354" y="646"/>
      <point x="354" y="572" type="qcurve" name="sh03"/>
      <point x="354" y="491"/>
      <point x="391" y="335"/>
      <point x="468" y="213"/>
      <point x="589" y="138"/>
      <point x="673" y="138" type="qcurve" name="sv02"/>
      <point x="752" y="138"/>
      <point x="867" y="204"/>
      <point x="940" y="313"/>
      <point x="975" y="452"/>
    </contour>
    <contour>
      <point x="349" y="1520" type="line" name="at01"/>
      <point x="349" y="-400" type="line" name="dh02"/>
      <point x="149" y="-400" type="line" name="dh01"/>
      <point x="149" y="1500" type="line"/>
    </contour>
  </outline>
</glyph>
<glyph name="circumflex" format="2">
  <advance width="1300"/>
  <unicode hex="02C6"/>
  <outline>
    <contour>
      <point x="880" y="1220" type="line" name="av01"/>
      <point x="730" y="1220" type="line"/>
      <point x="630" y="1372" type="line"/>
      <point x="600" y="1460" type="line" name="iv01"/>
      <point x="570" y="1373" type="line"/>
      <point x="469" y="1220" type="line" name="av02"/>
      <point x="319" y="1220" type="line"/>
      <point x="495" y="1500" type="line"/>
      <point x="695" y="1520" type="line" name="at01"/>
    </contour>
  </outline>
</glyph>
<glyph name="caron" format="2">
  <advance width="1300"/>
  <unicode hex="02C7"/>
  <outline>
    <contour>
      <point x="695" y="1220" type="line" name="hr00"/>
      <point x="495" y="1240" type="line"/>
      <point x="319" y="1520" type="line" name="at01"/>
      <point x="469" y="1520" type="line"/>
      <point x="580" y="1387" type="line"/>
      <point x="600" y="1310" type="line"/>
      <point x="620" y="1388" type="line"/>
      <point x="730" y="1520" type="line" name="at02"/>
      <point x="880" y="1520" type="line"/>
    </contour>
  </outline>
</glyph>
<glyph name="ring" format="2">
  <advance width="1300"/>
  <unicode hex="02DA"/>
  <outline>
    <contour>
      <point x="600" y="1634" type="qcurve" name="av01"/>
      <point x="649" y="1634"/>
      <point x="735" y="1597"/>
      <point x="800" y="1532"/>
      <point x="837" y="1446"/>
      <point x="837" y="1397" type="qcurve" name="ah02"/>
      <point x="837" y="1348"/>
      <point x="800" y="1260"/>
      <point x="737" y="1194"/>
      <point x="651" y="1156"/>
      <point x="602" y="1156" type="qcurve" name="av02"/>
      <point x="553" y="1156"/>
      <point x="466" y="1194"/>
      <point x="400" y="1260"/>
      <point x="362" y="1348"/>
      <point x="362" y="1397" type="qcurve" name="ah01"/>
      <point x="362" y="1446"/>
      <point x="400" y="1532"/>
      <point x="464" y="1597"/>
      <point x="551" y="1634"/>
    </contour>
    <contour>
      <point x="601" y="1273" type="qcurve" name="sv01"/>
      <point x="626" y="1273"/>
      <point x="670" y="1293"/>
      <point x="702" y="1326"/>
      <point x="721" y="1371"/>
      <point x="721" y="1396" type="qcurve" name="sh01"/>
      <point x="721" y="1421"/>
      <point x="702" y="1465"/>
      <point x="669" y="1498"/>
      <point x="625" y="1517"/>
      <point x="600" y="1517" type="qcurve" name="sv02"/>
      <point x="575" y="1517"/>
      <point x="531" y="1498"/>
      <point x="498" y="1465"/>
      <point x="479" y="1421"/>
      <point x="479" y="1396" type="qcurve" name="sh02"/>
      <point x="479" y="1371"/>
      <point x="498" y="1326"/>
      <point x="531" y="1293"/>
      <point x="576" y="1273"/>
    </contour>
  </outline>
</glyph>
<glyph name="Alpha" format="2">
  <advance width="1300"/>
  <unicode hex="0391"/>
  <outline>
    <contour>
      <point x="32" y="0" type="line" name="sh02"/>
      <point x="504" y="1300" type="line"/>
      <point x="539" y="1500" type="line"/>
      <point x="717" y="1520" type="line" name="at01"/>
      <point x="1265" y="0" type="line" name="sh04"/>
      <point x="1065" y="0" type="line" name="sh03"/>
      <point x="917" y="450" type="line" name="dv01"/>
      <point x="382" y="450" type="line"/>
      <point x="216" y="0" type="line" name="sh01"/>
    </contour>
    <contour>
      <point x="645" y="1400" type="line" name="ah01"/>
      <point x="600" y="1080" type="line"/>
      <point x="431" y="600" type="line"/>
      <point x="868" y="600" type="line" name="ih01"/>
      <point x="690" y="1080" type="line"/>
    </contour>
  </outline>
</glyph>
<glyph name="Beta" format="2">
  <advance width="1300"/>
  <unicode hex="0392"/>
  <outline>
    <contour>
      <point x="395" y="1147" type="line" name="sh01"/>
      <point x="395" y="885" type="line"/>
      <point x="500" y="885" type="line" name="ih02"/>
      <point x="561" y="888"/>
      <point x="680" y="920"/>
      <point x="773" y="983"/>
      <point x="830" y="1080"/>
      <point x="830" y="1148" type="qcurve" name="dh03"/>
      <point x="830" y="1214"/>
      <point x="769" y="1301"/>
      <point x="673" y="1351"/>
      <point x="554" y="1371"/>
      <point x="497" y="1371" type="qcurve" name="sv01"/>
      <point x="463" y="1371"/>
      <point x="390" y="1366"/>
      <point x="359" y="1360" type="qcurve"/>
    </contour>
    <contour>
      <point x="210" y="0" type="line" name="dh01"/>
      <point x="210" y="1290" type="line"/>
      <point x="180" y="1490" type="line"/>
      <point x="240" y="1498"/>
      <point x="367" y="1510"/>
      <point x="432" y="1510" type="qcurve" name="at01"/>
      <point x="548" y="1510"/>
      <point x="758" y="1481"/>
      <point x="917" y="1405"/>
      <point x="1011" y="1272"/>
      <point x="1011" y="1169" type="qcurve" name="dh04"/>
      <point x="1011" y="1060"/>
      <point x="917" y="902"/>
      <point x="830" y="860" type="qcurve"/>
      <point x="676" y="816" type="line" name="ih01"/>
      <point x="823" y="802" type="line"/>
      <point x="884" y="784"/>
      <point x="992" y="727"/>
      <point x="1071" y="645"/>
      <point x="1117" y="533"/>
      <point x="1117" y="460" type="qcurve" name="sh03"/>
      <point x="1117" y="375"/>
      <point x="1072" y="241"/>
      <point x="994" y="139"/>
      <point x="890" y="66"/>
      <point x="771" y="21"/>
      <point x="643" y="0"/>
      <point x="580" y="0" type="qcurve"/>
    </contour>
    <contour>
      <point x="395" y="160" type="line" name="dh02"/>
      <point x="505" y="160" type="line"/>
      <point x="604" y="160"/>
      <point x="759" y="189"/>
      <point x="866" y="256"/>
      <point x="922" y="367"/>
      <point x="922" y="450" type="qcurve" name="sh02"/>
      <point x="922" y="525"/>
      <point x="870" y="631"/>
      <point x="775" y="699"/>
      <point x="641" y="730"/>
      <point x="560" y="730" type="qcurve" name="dv01"/>
      <point x="500" y="730" type="line" name="ih03"/>
      <point x="395" y="730" type="line"/>
    </contour>
  </outline>
</glyph>
<glyph name="Gamma" format="2">
  <advance width="1300"/>
  <unicode hex="0393"/>
  <outline>
    <contour>
      <point x="400" y="1150" type="line" name="hr00"/>
      <point x="400" y="0" type="line" name="dh02"/>
      <point x="200" y="0" type="line" name="dh01"/>
      <point x="200" y="1300" type="line"/>
      <point x="183" y="1500" type="line" name="at01"/>
      <point x="1020" y="1500" type="line"/>
      <point x="1020" y="1350" type="line" name="sv01"/>
      <point x="385" y="1350" type="line"/>
    </contour>
  </outline>
</glyph>
<glyph name="Eta" format="2">
  <advance width="1300"/>
  <unicode hex="0397"/>
  <outline>
    <contour>
      <point x="875" y="0" type="line" name="ah01"/>
      <point x="875" y="725" type="line" name="dv01"/>
      <point x="307" y="725" type="line"/>
      <point x="307" y="0" type="line" name="sh02"/>
      <point x="117" y="0" type="line" name="sh01"/>
      <point x="117" y="1290" type="line"/>
      <point x="88" y="1500" type="line"/>
      <point x="307" y="1520" type="line" name="sh03"/>
      <point x="307" y="885" type="line"/>
      <point x="875" y="885" type="line" name="sh04"/>
      <point x="875" y="1500" type="line"/>
      <point x="1065" y="1520" type="line" name="at01"/>
      <point x="1065" y="0" type="line" name="sh05"/>
    </contour>
  </outline>
</glyph>
<glyph name="Omicron" format="2">
  <advance width="1300"/>
  <unicode hex="039F"/>
  <outline>
    <contour>
      <point x="824" y="-17" type="qcurve" name="ab01"/>
      <point x="734" y="-17"/>
      <point x="583" y="38"/>
      <point x="460" y="139"/>
      <point x="368" y="279"/>
      <point x="305" y="450"/>
      <point x="274" y="645"/>
      <point x="274" y="750" type="qcurve" name="sh01"/>
      <point x="274" y="855"/>
      <point x="304" y="1050"/>
      <point x="365" y="1221"/>
      <point x="456" y="1361"/>
      <point x="578" y="1462"/>
      <point x="732" y="1517"/>
      <point x="824" y="1517" type="qcurve" name="at01"/>
      <point x="914" y="1517"/>
      <point x="1065" y="1462"/>
      <point x="1188" y="1361"/>
      <point x="1280" y="1221"/>
      <point x="1343" y="1050"/>
      <point x="1374" y="855"/>
      <point x="1374" y="750" type="qcurve" name="sh02"/>
      <point x="1374" y="645"/>
      <point x="1344" y="450"/>
      <point x="1283" y="279"/>
      <point x="1192" y="139"/>
      <point x="1070" y="38"/>
      <point x="916" y="-17"/>
    </contour>
    <contour>
      <point x="1166" y="719" type="qcurve" name="ah01"/>
      <point x="1166" y="789"/>
      <point x="1157" y="935"/>
      <point x="1130" y="1074"/>
      <point x="1082" y="1197"/>
      <point x="1005" y="1288"/>
      <point x="894" y="1342"/>
      <point x="818" y="1342" type="qcurve" name="sv01"/>
      <point x="746" y="1342"/>
      <point x="640" y="1294"/>
      <point x="566" y="1211"/>
      <point x="518" y="1100"/>
      <point x="492" y="976"/>
      <point x="482" y="846"/>
      <point x="482" y="785" type="qcurve" name="sh03"/>
      <point x="482" y="714"/>
      <point x="491" y="566"/>
      <point x="518" y="427"/>
      <point x="566" y="304"/>
      <point x="644" y="212"/>
      <point x="754" y="158"/>
      <point x="830" y="158" type="qcurve" name="sv02"/>
      <point x="901" y="158"/>
      <point x="1006" y="207"/>
      <point x="1081" y="292"/>
      <point x="1129" y="403"/>
      <point x="1156" y="528"/>
      <point x="1166" y="658"/>
    </contour>
  </outline>
</glyph>
<glyph name="Omegagreek" format="2">
  <advance width="1300"/>
  <unicode hex="03A9"/>
  <outline>
    <contour>
      <point x="100" y="160" type="line" name="hr00"/>
      <point x="248" y="160" type="line"/>
      <point x="399" y="100" type="line"/>
      <point x="255" y="239" type="line"/>
      <point x="175" y="316"/>
      <point x="122" y="531"/>
      <point x="122" y="775" type="curve" smooth="yes"/>
      <point x="122" y="1215"/>
      <point x="218" y="1517"/>
      <point x="648" y="1517" type="curve" smooth="yes"/>
      <point x="1068" y="1517"/>
      <point x="1174" y="1215"/>
      <point x="1174" y="775" type="curve" smooth="yes"/>
      <point x="1174" y="532"/>
      <point x="1118" y="317"/>
      <point x="1047" y="242" type="curve"/>
      <point x="897" y="100" type="line"/>
      <point x="1047" y="160" type="line"/>
      <point x="1195" y="160" type="line"/>
      <point x="1195" y="0" type="line"/>
      <point x="747" y="0" type="line"/>
      <point x="747" y="200" type="line"/>
      <point x="935" y="332"/>
      <point x="966" y="485"/>
      <point x="966" y="744" type="curve" smooth="yes"/>
      <point x="966" y="1063"/>
      <point x="906" y="1347"/>
      <point x="642" y="1347" type="curve" smooth="yes"/>
      <point x="394" y="1347"/>
      <point x="330" y="1095"/>
      <point x="330" y="810" type="curve" smooth="yes"/>
      <point x="330" y="512"/>
      <point x="357" y="341"/>
      <point x="548" y="200" type="curve"/>
      <point x="548" y="0" type="line"/>
      <point x="100" y="0" type="line"/>
    </contour>
  </outline>
</glyph>
<glyph name="eta" format="2">
  <advance width="1300"/>
  <unicode hex="03B7"/>
  <outline>
    <contour>
      <point x="390" y="0" type="line" name="hr00"/>
      <point x="200" y="0" type="line"/>
      <point x="200" y="1100" type="line"/>
      <point x="390" y="1120" type="line"/>
      <point x="390" y="937" type="line"/>
      <point x="451" y="1044" type="line"/>
      <point x="499" y="1076"/>
      <point x="605" y="1117"/>
      <point x="715" y="1117" type="curve" smooth="yes"/>
      <point x="927" y="1117"/>
      <point x="1000" y="975"/>
      <point x="1000" y="750" type="curve" smooth="yes"/>
      <point x="1000" y="-500" type="line"/>
      <point x="810" y="-500" type="line"/>
      <point x="810" y="750" type="line" smooth="yes"/>
      <point x="810" y="894"/>
      <point x="774" y="957"/>
      <point x="650" y="957" type="curve" smooth="yes"/>
      <point x="560" y="957"/>
      <point x="460" y="895"/>
      <point x="390" y="844" type="curve"/>
    </contour>
  </outline>
</glyph>
<glyph name="lambda" format="2">
  <advance width="1300"/>
  <unicode hex="03BB"/>
  <outline>
    <contour>
      <point x="650" y="968" type="line" name="hr00"/>
      <point x="598" y="736" type="line"/>
      <point x="330" y="0" type="line"/>
      <point x="134" y="0" type="line"/>
      <point x="551" y="1147" type="line"/>
      <point x="498" y="1279"/>
      <point x="418" y="1428"/>
      <point x="330" y="1428" type="curve" smooth="yes"/>
      <point x="298" y="1428"/>
      <point x="268" y="1412"/>
      <point x="245" y="1396" type="curve"/>
      <point x="172" y="1503" type="line"/>
      <point x="227" y="1551"/>
      <point x="294" y="1580"/>
      <point x="362" y="1580" type="curve" smooth="yes"/>
      <point x="544" y="1580"/>
      <point x="661" y="1342"/>
      <point x="742" y="1117" type="curve" smooth="yes"/>
      <point x="1145" y="0" type="line"/>
      <point x="971" y="0" type="line"/>
      <point x="702" y="736" type="line"/>
    </contour>
  </outline>
</glyph>
<glyph name="uni03BC" format="2">
  <advance width="1300"/>
  <unicode hex="03BC"/>
  <outline>
    <contour>
      <point x="200" y="1100" type="line" name="hr00"/>
      <point x="390" y="1120" type="line"/>
      <point x="390" y="365" type="line"/>
      <point x="390" y="248"/>
      <point x="400" y="127"/>
      <point x="596" y="127" type="curve" smooth="yes"/>
      <point x="676" y="127"/>
      <point x="753" y="157"/>
      <point x="810" y="222" type="curve"/>
      <point x="810" y="1100" type="line"/>
      <point x="1000" y="1120" type="line"/>
      <point x="1000" y="0" type="line"/>
      <point x="810" y="0" type="line"/>
      <point x="810" y="129" type="line"/>
      <point x="703" y="3"/>
      <point x="603" y="-15"/>
      <point x="510" y="-15" type="curve"/>
      <point x="461" y="-15"/>
      <point x="409" y="-6"/>
      <point x="370" y="11" type="curve"/>
      <point x="390" y="-150" type="line"/>
      <point x="390" y="-500" type="line"/>
      <point x="200" y="-500" type="line"/>
    </contour>
  </outline>
</glyph>
<glyph name="sigma" format="2">
  <advance width="1300"/>
  <unicode hex="03C3"/>
  <outline>
    <contour>
      <point x="100" y="551" type="curve" smooth="yes" name="hr00"/>
      <point x="100" y="851"/>
      <point x="251" y="1120"/>
      <point x="600" y="1120" type="curve" smooth="yes"/>
      <point x="1200" y="1120" type="line"/>
      <point x="1200" y="980" type="line"/>
      <point x="1100" y="980" type="line"/>
      <point x="933" y="995" type="line"/>
      <point x="1038" y="853" type="line"/>
      <point x="1081" y="762"/>
      <point x="1100" y="660"/>
      <point x="1100" y="551" type="curve" smooth="yes"/>
      <point x="1100" y="240"/>
      <point x="949" y="-17"/>
      <point x="600" y="-17" type="curve" smooth="yes"/>
      <point x="251" y="-17"/>
      <point x="100" y="254"/>
    </contour>
    <contour>
      <point x="270" y="551" type="curve" smooth="yes"/>
      <point x="270" y="346"/>
      <point x="375" y="123"/>
      <point x="600" y="123" type="curve" smooth="yes"/>
      <point x="825" y="123"/>
      <point x="930" y="346"/>
      <point x="930" y="551" type="curve" smooth="yes"/>
      <point x="930" y="759"/>
      <point x="825" y="981"/>
      <point x="600" y="981" type="curve" smooth="yes"/>
      <point x="375" y="981"/>
      <point x="270" y="755"/>
    </contour>
  </outline>
</glyph>
<glyph name="chi" format="2">
  <advance width="1300"/>
  <unicode hex="03C7"/>
  <outline>
    <contour>
      <point x="691" y="53" type="line" name="hr00"/>
      <point x="614" y="230" type="line"/>
      <point x="566" y="70" type="line"/>
      <point x="301" y="-500" type="line"/>
      <point x="103" y="-500" type="line"/>
      <point x="523" y="329" type="line"/>
      <point x="268" y="869" type="line"/>
      <point x="206" y="978"/>
      <point x="150" y="987"/>
      <point x="150" y="987" type="curve"/>
      <point x="150" y="1117" type="line"/>
      <point x="250" y="1117"/>
      <point x="362" y="1088"/>
      <point x="437" y="921" type="curve" smooth="yes"/>
      <point x="674" y="392" type="line"/>
      <point x="705" y="550" type="line"/>
      <point x="953" y="1100" type="line"/>
      <point x="1153" y="1100" type="line"/>
      <point x="758" y="306" type="line"/>
      <point x="1031" y="-265" type="line"/>
      <point x="1092" y="-374"/>
      <point x="1150" y="-383"/>
      <point x="1150" y="-383" type="curve"/>
      <point x="1150" y="-517" type="line"/>
      <point x="1050" y="-517"/>
      <point x="955" y="-499"/>
      <point x="862" y="-336" type="curve"/>
    </contour>
  </outline>
</glyph>
<glyph name="Upsilon1" format="2">
  <advance width="1300"/>
  <unicode hex="03D2"/>
  <outline>
    <contour>
      <point x="1181" y="1517" type="curve" name="hr00"/>
      <point x="1181" y="1387" type="line"/>
      <point x="1181" y="1387"/>
      <point x="1100" y="1384"/>
      <point x="1053" y="1289" type="curve" smooth="yes"/>
      <point x="743" y="658" type="line"/>
      <point x="743" y="0" type="line"/>
      <point x="551" y="0" type="line"/>
      <point x="551" y="658" type="line"/>
      <point x="241" y="1289" type="line" smooth="yes"/>
      <point x="194" y="1384"/>
      <point x="113" y="1387"/>
      <point x="113" y="1387" type="curve"/>
      <point x="113" y="1517" type="line"/>
      <point x="213" y="1517"/>
      <point x="288" y="1504"/>
      <point x="380" y="1340" type="curve" smooth="yes"/>
      <point x="570" y="1000" type="line"/>
      <point x="651" y="751" type="line"/>
      <point x="651" y="751"/>
      <point x="724" y="1000"/>
      <point x="724" y="1000" type="curve"/>
      <point x="914" y="1340" type="line" smooth="yes"/>
      <point x="1006" y="1504"/>
      <point x="1081" y="1517"/>
    </contour>
  </outline>
</glyph>
<glyph name="quoteright" format="2">
  <advance width="1300"/>
  <unicode hex="2019"/>
  <outline>
    <contour>
      <point x="700" y="1520" type="line"/>
      <point x="950" y="1500" type="line" name="ah02"/>
      <point x="600" y="1200" type="line" name="sh01"/>
      <point x="400" y="1200" type="line" name="ah01"/>
    </contour>
  </outline>
</glyph>
<glyph name="daggerdbl" format="2">
  <advance width="1300"/>
  <unicode hex="2021"/>
  <outline>
    <contour>
      <point x="200" y="1049" type="line" name="at02"/>
      <point x="500" y="1049" type="line" name="dh01"/>
      <point x="500" y="1500" type="line"/>
      <point x="700" y="1520" type="line" name="at01"/>
      <point x="700" y="1049" type="line" name="dh02"/>
      <point x="1020" y="1049" type="line"/>
      <point x="1000" y="900" type="line" name="sv01"/>
      <point x="700" y="900" type="line" name="sh01"/>
      <point x="700" y="300" type="line"/>
      <point x="1000" y="300" type="line" name="dv02"/>
      <point x="1000" y="150" type="line" name="dv01"/>
      <point x="700" y="150" type="line" name="sh02"/>
      <point x="700" y="-400" type="line" name="av01"/>
      <point x="500" y="-400" type="line" name="sh03"/>
      <point x="500" y="150" type="line" name="sv02"/>
      <point x="200" y="150" type="line"/>
      <point x="200" y="300" type="line" name="sv03"/>
      <point x="500" y="300" type="line" name="sh04"/>
      <point x="500" y="900" type="line" name="sv04"/>
      <point x="200" y="900" type="line" name="sv05"/>
    </contour>
  </outline>
</glyph>
<glyph name="ellipsis" format="2">
  <advance width="1300"/>
  <unicode hex="2026"/>
  <outline>
    <contour>
      <point x="37" y="150" type="qcurve" name="ah01"/>
      <point x="37" y="184"/>
      <point x="63" y="244"/>
      <point x="108" y="289"/>
      <point x="167" y="315"/>
      <point x="201" y="315" type="qcurve" name="av01"/>
      <point x="235" y="315"/>
      <point x="295" y="289"/>
      <point x="340" y="244"/>
      <point x="366" y="184"/>
      <point x="366" y="150" type="qcurve" name="ah02"/>
      <point x="366" y="116"/>
      <point x="340" y="55"/>
      <point x="296" y="10"/>
      <point x="237" y="-17"/>
      <point x="203" y="-17" type="qcurve" name="ab01"/>
      <point x="169" y="-17"/>
      <point x="108" y="10"/>
      <point x="63" y="55"/>
      <point x="37" y="116"/>
    </contour>
    <contour>
      <point x="477" y="150" type="qcurve" name="ah03"/>
      <point x="477" y="184"/>
      <point x="503" y="244"/>
      <point x="548" y="289"/>
      <point x="607" y="315"/>
      <point x="641" y="315" type="qcurve" name="av02"/>
      <point x="675" y="315"/>
      <point x="735" y="289"/>
      <point x="780" y="244"/>
      <point x="806" y="184"/>
      <point x="806" y="150" type="qcurve" name="ah04"/>
      <point x="806" y="116"/>
      <point x="780" y="55"/>
      <point x="736" y="10"/>
      <point x="677" y="-17"/>
      <point x="643" y="-17" type="qcurve" name="ab02"/>
      <point x="609" y="-17"/>
      <point x="548" y="10"/>
      <point x="503" y="55"/>
      <point x="477" y="116"/>
    </contour>
    <contour>
      <point x="917" y="150" type="qcurve" name="ah05"/>
      <point x="917" y="184"/>
      <point x="943" y="244"/>
      <point x="988" y="289"/>
      <point x="1047" y="315"/>
      <point x="1081" y="315" type="qcurve" name="av03"/>
      <point x="1115" y="315"/>
      <point x="1175" y="289"/>
      <point x="1220" y="244"/>
      <point x="1246" y="184"/>
      <point x="1246" y="150" type="qcurve" name="ah06"/>
      <point x="1246" y="116"/>
      <point x="1220" y="55"/>
      <point x="1176" y="10"/>
      <point x="1117" y="-17"/>
      <point x="1083" y="-17" type="qcurve" name="ab03"/>
      <point x="1049" y="-17"/>
      <point x="988" y="10"/>
      <point x="943" y="55"/>
      <point x="917" y="116"/>
    </contour>
  </outline>
</glyph>
<glyph name="guilsinglleft" format="2">
  <advance width="1300"/>
  <unicode hex="2039"/>
  <outline>
    <contour>
      <point x="870" y="1026" type="line" name="av01"/>
      <point x="920" y="901" type="line" name="sv01"/>
      <point x="595" y="610" type="line"/>
      <point x="457" y="550" type="line" name="iv01"/>
      <point x="594" y="490" type="line"/>
      <point x="922" y="201" type="line" name="sv02"/>
      <point x="868" y="66" type="line" name="av02"/>
      <point x="400" y="478" type="line" name="dv02"/>
      <point x="400" y="617" type="line" name="dv01"/>
    </contour>
  </outline>
</glyph>
<glyph name="superscriptsmalli" format="2">
  <advance width="1300"/>
  <unicode hex="2071"/>
  <outline>
    <contour>
      <point x="356" y="1470" type="line" name="hr00"/>
      <point x="457" y="1470" type="line"/>
      <point x="457" y="1370" type="line"/>
      <point x="356" y="1370" type="line"/>
    </contour>
    <contour>
      <point x="454" y="916" type="line"/>
      <point x="454" y="890"/>
      <point x="461" y="846"/>
      <point x="476" y="814"/>
      <point x="501" y="796"/>
      <point x="519" y="796" type="qcurve"/>
      <point x="544" y="796"/>
      <point x="590" y="804"/>
      <point x="627" y="815"/>
      <point x="652" y="824"/>
      <point x="655" y="825" type="qcurve"/>
      <point x="674" y="748" type="line"/>
      <point x="671" y="746"/>
      <point x="645" y="734"/>
      <point x="603" y="722"/>
      <point x="547" y="711"/>
      <point x="514" y="711" type="qcurve"/>
      <point x="465" y="711"/>
      <point x="405" y="743"/>
      <point x="371" y="800"/>
      <point x="359" y="877"/>
      <point x="359" y="921" type="qcurve"/>
      <point x="359" y="1180" type="line"/>
      <point x="379" y="1210" type="line"/>
      <point x="309" y="1190" type="line"/>
      <point x="209" y="1190" type="line"/>
      <point x="199" y="1270" type="line"/>
      <point x="454" y="1270" type="line"/>
      <point x="454" y="970" type="line"/>
    </contour>
  </outline>
</glyph>
<glyph name="superscriptfour" format="2">
  <advance width="1300"/>
  <unicode hex="2074"/>
  <outline>
    <contour>
      <point x="667" y="870" type="line" name="hr00"/>
      <point x="577" y="870" type="line"/>
      <point x="577" y="720" type="line"/>
      <point x="472" y="720" type="line"/>
      <point x="472" y="870" type="line"/>
      <point x="174" y="870" type="line"/>
      <point x="174" y="955" type="line"/>
      <point x="416" y="1480" type="line"/>
      <point x="511" y="1470" type="line"/>
      <point x="303" y="1020" type="line"/>
      <point x="257" y="950" type="line"/>
      <point x="472" y="950" type="line"/>
      <point x="472" y="1153" type="line"/>
      <point x="577" y="1145" type="line"/>
      <point x="577" y="950" type="line"/>
      <point x="674" y="950" type="line"/>
    </contour>
  </outline>
</glyph>
<glyph name="superscriptplussign" format="2">
  <advance width="1300"/>
  <unicode hex="207A"/>
  <outline>
    <contour>
      <point x="200" y="1070" type="line" name="hr00"/>
      <point x="386" y="1070" type="line"/>
      <point x="386" y="1280" type="line"/>
      <point x="464" y="1280" type="line"/>
      <point x="464" y="1070" type="line"/>
      <point x="650" y="1070" type="line"/>
      <point x="650" y="992" type="line"/>
      <point x="464" y="992" type="line"/>
      <point x="464" y="781" type="line"/>
      <point x="386" y="781" type="line"/>
      <point x="386" y="992" type="line"/>
      <point x="200" y="992" type="line"/>
    </contour>
  </outline>
</glyph>
<glyph name="superscriptminus" format="2">
  <advance width="1300"/>
  <unicode hex="207B"/>
  <outline>
    <contour>
      <point x="200" y="1070" type="line" name="hr00"/>
      <point x="650" y="1070" type="line"/>
      <point x="650" y="992" type="line"/>
      <point x="200" y="992" type="line"/>
    </contour>
  </outline>
</glyph>
<glyph name="superscriptsmalln" format="2">
  <advance width="1300"/>
  <unicode hex="207F"/>
  <outline>
    <contour>
      <point x="294" y="720" type="line" name="hr00"/>
      <point x="204" y="720" type="line"/>
      <point x="204" y="1270" type="line"/>
      <point x="294" y="1280" type="line"/>
      <point x="294" y="1183" type="line"/>
      <point x="325" y="1242" type="line"/>
      <point x="334" y="1248"/>
      <point x="358" y="1261"/>
      <point x="393" y="1271"/>
      <point x="441" y="1278"/>
      <point x="474" y="1278" type="qcurve"/>
      <point x="513" y="1278"/>
      <point x="577" y="1253"/>
      <point x="620" y="1205"/>
      <point x="644" y="1137"/>
      <point x="644" y="1095" type="qcurve"/>
      <point x="644" y="720" type="line"/>
      <point x="554" y="720" type="line"/>
      <point x="554" y="1095" type="line"/>
      <point x="554" y="1122"/>
      <point x="536" y="1161"/>
      <point x="505" y="1186"/>
      <point x="464" y="1198"/>
      <point x="441" y="1198" type="qcurve"/>
      <point x="417" y="1198"/>
      <point x="373" y="1186"/>
      <point x="335" y="1168"/>
      <point x="304" y="1146"/>
      <point x="294" y="1137" type="qcurve"/>
    </contour>
  </outline>
</glyph>
<glyph name="subscriptone" format="2">
  <advance width="1300"/>
  <unicode hex="2081"/>
  <outline>
    <contour>
      <point x="231" y="-500" type="line" name="hr00"/>
      <point x="231" y="-420" type="line"/>
      <point x="403" y="-420" type="line"/>
      <point x="403" y="63" type="line"/>
      <point x="432" y="176" type="line"/>
      <point x="364" y="83" type="line"/>
      <point x="258" y="-11" type="line"/>
      <point x="204" y="50" type="line"/>
      <point x="433" y="260" type="line"/>
      <point x="508" y="250" type="line"/>
      <point x="508" y="-420" type="line"/>
      <point x="681" y="-420" type="line"/>
      <point x="681" y="-500" type="line"/>
    </contour>
  </outline>
</glyph>
<glyph name="subscriptplussign" format="2">
  <advance width="1300"/>
  <unicode hex="208A"/>
  <outline>
    <contour>
      <point x="200" y="-150" type="line" name="hr00"/>
      <point x="386" y="-150" type="line"/>
      <point x="386" y="60" type="line"/>
      <point x="464" y="60" type="line"/>
      <point x="464" y="-150" type="line"/>
      <point x="650" y="-150" type="line"/>
      <point x="650" y="-228" type="line"/>
      <point x="464" y="-228" type="line"/>
      <point x="464" y="-439" type="line"/>
      <point x="386" y="-439" type="line"/>
      <point x="386" y="-228" type="line"/>
      <point x="200" y="-228" type="line"/>
    </contour>
  </outline>
</glyph>
<glyph name="centigrade" format="2">
  <advance width="1300"/>
  <unicode hex="2103"/>
  <outline>
    <contour>
      <point x="1437" y="104" type="line" name="fh01"/>
      <point x="1396" y="71"/>
      <point x="1312" y="25"/>
      <point x="1220" y="-4"/>
      <point x="1118" y="-17"/>
      <point x="1059" y="-17" type="qcurve" name="ab01"/>
      <point x="963" y="-17"/>
      <point x="789" y="40"/>
      <point x="640" y="143"/>
      <point x="520" y="287"/>
      <point x="436" y="462"/>
      <point x="390" y="662"/>
      <point x="390" y="770" type="qcurve" name="dh01"/>
      <point x="390" y="921"/>
      <point x="476" y="1192"/>
      <point x="646" y="1397"/>
      <point x="897" y="1517"/>
      <point x="1062" y="1517" type="qcurve" name="at01"/>
      <point x="1177" y="1517"/>
      <point x="1362" y="1444"/>
      <point x="1434" y="1375" type="qcurve" name="fh02"/>
      <point x="1344" y="1268" type="line" name="fh03"/>
      <point x="1320" y="1284"/>
      <point x="1266" y="1313"/>
      <point x="1201" y="1335"/>
      <point x="1124" y="1348"/>
      <point x="1078" y="1348" type="qcurve" name="sv01"/>
      <point x="956" y="1348"/>
      <point x="775" y="1256"/>
      <point x="655" y="1099"/>
      <point x="596" y="890"/>
      <point x="596" y="773" type="qcurve" name="dh02"/>
      <point x="596" y="700"/>
      <point x="626" y="552"/>
      <point x="683" y="414"/>
      <point x="767" y="294"/>
      <point x="876" y="204"/>
      <point x="1008" y="153"/>
      <point x="1085" y="153" type="qcurve" name="sv02"/>
      <point x="1130" y="153"/>
      <point x="1198" y="161"/>
      <point x="1259" y="179"/>
      <point x="1321" y="208"/>
      <point x="1360" y="230" type="qcurve" name="fh04"/>
    </contour>
    <contour>
      <point x="130" y="1517" type="qcurve" name="at02"/>
      <point x="186" y="1517"/>
      <point x="284" y="1475"/>
      <point x="357" y="1401"/>
      <point x="399" y="1303"/>
      <point x="399" y="1247" type="qcurve" name="ah02"/>
      <point x="399" y="1191"/>
      <point x="357" y="1093"/>
      <point x="284" y="1020"/>
      <point x="186" y="977"/>
      <point x="130" y="977" type="qcurve" name="av01"/>
      <point x="74" y="977"/>
      <point x="-24" y="1020"/>
      <point x="-97" y="1093"/>
      <point x="-139" y="1191"/>
      <point x="-139" y="1247" type="qcurve" name="ah01"/>
      <point x="-139" y="1303"/>
      <point x="-97" y="1401"/>
      <point x="-24" y="1475"/>
      <point x="74" y="1517"/>
    </contour>
    <contour>
      <point x="130" y="1088" type="qcurve" name="sv03"/>
      <point x="163" y="1088"/>
      <point x="221" y="1113"/>
      <point x="264" y="1156"/>
      <point x="289" y="1214"/>
      <point x="289" y="1247" type="qcurve" name="sh01"/>
      <point x="289" y="1280"/>
      <point x="264" y="1338"/>
      <point x="221" y="1381"/>
      <point x="163" y="1406"/>
      <point x="130" y="1406" type="qcurve" name="sv04"/>
      <point x="97" y="1406"/>
      <point x="39" y="1381"/>
      <point x="-4" y="1338"/>
      <point x="-29" y="1280"/>
      <point x="-29" y="1247" type="qcurve" name="sh02"/>
      <point x="-29" y="1214"/>
      <point x="-4" y="1156"/>
      <point x="39" y="1113"/>
      <point x="97" y="1088"/>
    </contour>
  </outline>
</glyph>
<glyph name="fahrenheit" format="2">
  <advance width="1300"/>
  <unicode hex="2109"/>
  <outline>
    <contour>
      <point x="690" y="0" type="line" name="dh02"/>
      <point x="500" y="0" type="line" name="dh01"/>
      <point x="500" y="1290" type="line"/>
      <point x="470" y="1500" type="line" name="at01"/>
      <point x="1415" y="1500" type="line" name="dh04"/>
      <point x="1395" y="1340" type="line" name="sv01"/>
      <point x="670" y="1340" type="line"/>
      <point x="690" y="1150" type="line" name="sh01"/>
      <point x="690" y="885" type="line"/>
      <point x="1310" y="885" type="line" name="dh03"/>
      <point x="1310" y="740" type="line" name="dv01"/>
      <point x="690" y="740" type="line"/>
    </contour>
    <contour>
      <point x="145" y="1517" type="qcurve" name="at02"/>
      <point x="201" y="1517"/>
      <point x="299" y="1475"/>
      <point x="372" y="1401"/>
      <point x="414" y="1303"/>
      <point x="414" y="1247" type="qcurve" name="ah02"/>
      <point x="414" y="1191"/>
      <point x="372" y="1093"/>
      <point x="299" y="1020"/>
      <point x="201" y="977"/>
      <point x="145" y="977" type="qcurve" name="av01"/>
      <point x="89" y="977"/>
      <point x="-9" y="1020"/>
      <point x="-82" y="1093"/>
      <point x="-124" y="1191"/>
      <point x="-124" y="1247" type="qcurve" name="ah01"/>
      <point x="-124" y="1303"/>
      <point x="-82" y="1401"/>
      <point x="-9" y="1475"/>
      <point x="89" y="1517"/>
    </contour>
    <contour>
      <point x="145" y="1088" type="qcurve" name="sv02"/>
      <point x="178" y="1088"/>
      <point x="236" y="1113"/>
      <point x="279" y="1156"/>
      <point x="304" y="1214"/>
      <point x="304" y="1247" type="qcurve" name="sh02"/>
      <point x="304" y="1280"/>
      <point x="279" y="1338"/>
      <point x="236" y="1381"/>
      <point x="178" y="1406"/>
      <point x="145" y="1406" type="qcurve" name="sv03"/>
      <point x="112" y="1406"/>
      <point x="54" y="1381"/>
      <point x="11" y="1338"/>
      <point x="-14" y="1280"/>
      <point x="-14" y="1247" type="qcurve" name="sh03"/>
      <point x="-14" y="1214"/>
      <point x="11" y="1156"/>
      <point x="54" y="1113"/>
      <point x="112" y="1088"/>
    </contour>
  </outline>
</glyph>
<glyph name="romannumeraleight" format="2">
  <advance width="2600"/>
  <unicode hex="2167"/>
  <outline>
    <contour>
      <point x="1362" y="160" type="line" name="hr00"/>
      <point x="1645" y="160" type="line"/>
      <point x="1645" y="1360" type="line"/>
      <point x="1362" y="1360" type="line"/>
    </contour>
    <contour>
      <point x="840" y="1500" type="line"/>
      <point x="2682" y="1500" type="line"/>
      <point x="2682" y="1360" type="line"/>
      <point x="2324" y="1360" type="line"/>
      <point x="2324" y="160" type="line"/>
      <point x="2702" y="160" type="line"/>
      <point x="2682" y="0" type="line"/>
      <point x="786" y="0" type="line"/>
      <point x="806" y="160" type="line"/>
      <point x="1152" y="160" type="line"/>
      <point x="1152" y="1360" type="line"/>
      <point x="806" y="1360" type="line"/>
    </contour>
    <contour>
      <point x="1855" y="160" type="line"/>
      <point x="2138" y="160" type="line"/>
      <point x="2138" y="1360" type="line"/>
      <point x="1855" y="1360" type="line"/>
    </contour>
    <contour>
      <point x="405" y="500" type="line"/>
      <point x="463" y="140" type="line"/>
      <point x="501" y="454" type="line"/>
      <point x="811" y="1500" type="line"/>
      <point x="995" y="1500" type="line"/>
      <point x="608" y="180" type="line"/>
      <point x="582" y="-20" type="line"/>
      <point x="354" y="0" type="line"/>
      <point x="-88" y="1500" type="line"/>
      <point x="102" y="1520" type="line"/>
    </contour>
  </outline>
</glyph>
<glyph name="romannumeraleleven" format="2">
  <advance width="2600"/>
  <unicode hex="216A"/>
  <outline>
    <contour>
      <point x="978" y="0" type="line" name="sh01"/>
      <point x="701" y="519" type="line" name="fh01"/>
      <point x="624" y="700" type="line" name="ah02"/>
      <point x="576" y="540" type="line" name="fh02"/>
      <point x="268" y="0" type="line" name="sh02"/>
      <point x="70" y="0" type="line" name="fh03"/>
      <point x="533" y="799" type="line" name="fh04"/>
      <point x="127" y="1500" type="line" name="sh04"/>
      <point x="339" y="1520" type="line" name="sh03"/>
      <point x="600" y="1056" type="line" name="fh05"/>
      <point x="680" y="860" type="line" name="ah01"/>
      <point x="715" y="1020" type="line" name="fh06"/>
      <point x="967" y="1500" type="line" name="sh05"/>
      <point x="1167" y="1500" type="line" name="fh07"/>
      <point x="768" y="776" type="line" name="fh08"/>
      <point x="1198" y="0" type="line" name="sh06"/>
    </contour>
    <contour>
      <point x="1006" y="1500" type="line" name="at01"/>
      <point x="1906" y="1500" type="line" name="ah03"/>
      <point x="1906" y="1340" type="line" name="sv01"/>
      <point x="1548" y="1340" type="line" name="dh02"/>
      <point x="1548" y="160" type="line" name="dh04"/>
      <point x="1926" y="160" type="line" name="sh08"/>
      <point x="1906" y="0" type="line" name="ab01"/>
      <point x="1006" y="0" type="line" name="sh07"/>
      <point x="1006" y="160" type="line" name="sv02"/>
      <point x="1362" y="160" type="line" name="dh03"/>
      <point x="1362" y="1340" type="line" name="dh01"/>
      <point x="986" y="1340" type="line" name="sh09"/>
    </contour>
  </outline>
</glyph>
<glyph name="smallromannumeralone" format="2">
  <advance width="1300"/>
  <unicode hex="2170"/>
  <outline>
    <contour>
      <point x="690" y="0" type="line" name="hr00"/>
      <point x="500" y="0" type="line"/>
      <point x="500" y="1100" type="line"/>
      <point x="690" y="1120" type="line"/>
    </contour>
  </outline>
</glyph>
<glyph name="smallromannumeraltwo" format="2">
  <advance width="1300"/>
  <unicode hex="2171"/>
  <outline>
    <contour>
      <point x="490" y="0" type="line"/>
      <point x="300" y="0" type="line"/>
      <point x="300" y="1100" type="line"/>
      <point x="490" y="1120" type="line"/>
    </contour>
    <contour>
      <point x="990" y="0" type="line" name="hr01"/>
      <point x="800" y="0" type="line"/>
      <point x="800" y="1100" type="line"/>
      <point x="990" y="1120" type="line"/>
    </contour>
  </outline>
</glyph>
<glyph name="smallromannumeralthree" format="2">
  <advance width="1300"/>
  <unicode hex="2172"/>
  <outline>
    <contour>
      <point x="190" y="0" type="line"/>
      <point x="0" y="0" type="line"/>
      <point x="0" y="1100" type="line"/>
      <point x="190" y="1120" type="line"/>
    </contour>
    <contour>
      <point x="690" y="0" type="line" name="hr01"/>
      <point x="500" y="0" type="line"/>
      <point x="500" y="1100" type="line"/>
      <point x="690" y="1120" type="line"/>
    </contour>
    <contour>
      <point x="1190" y="0" type="line" name="hr02"/>
      <point x="1000" y="0" type="line"/>
      <point x="1000" y="1100" type="line"/>
      <point x="1190" y="1120" type="line"/>
    </contour>
  </outline>
</glyph>
<glyph name="smallromannumeralfour" format="2">
  <advance width="1300"/>
  <unicode hex="2173"/>
  <outline>
    <contour>
      <point x="1208" y="1120" type="line" name="sh02"/>
      <point x="837" y="-20" type="line" name="ab01"/>
      <point x="631" y="0" type="line"/>
      <point x="274" y="1100" type="line" name="sh04"/>
      <point x="457" y="1120" type="line" name="sh03"/>
      <point x="696" y="381" type="line"/>
      <point x="749" y="149" type="line" name="ah01"/>
      <point x="799" y="381" type="line"/>
      <point x="1033" y="1100" type="line" name="sh01"/>
    </contour>
    <contour>
      <point x="190" y="0" type="line" name="hr01"/>
      <point x="0" y="0" type="line"/>
      <point x="0" y="1100" type="line"/>
      <point x="190" y="1120" type="line"/>
    </contour>
  </outline>
</glyph>
<glyph name="smallromannumeralsix" format="2">
  <advance width="1300"/>
  <unicode hex="2175"/>
  <outline>
    <contour>
      <point x="908" y="1120" type="line" name="sh02"/>
      <point x="537" y="-20" type="line" name="ab01"/>
      <point x="331" y="0" type="line"/>
      <point x="-26" y="1100" type="line" name="sh04"/>
      <point x="157" y="1120" type="line" name="sh03"/>
      <point x="396" y="381" type="line"/>
      <point x="449" y="149" type="line" name="ah01"/>
      <point x="499" y="381" type="line"/>
      <point x="733" y="1100" type="line" name="sh01"/>
    </contour>
    <contour>
      <point x="1190" y="0" type="line" name="hr01"/>
      <point x="1000" y="0" type="line"/>
      <point x="1000" y="1100" type="line"/>
      <point x="1190" y="1120" type="line"/>
    </contour>
  </outline>
</glyph>
<glyph name="smallromannumeraleight" format="2">
  <advance width="2600"/>
  <unicode hex="2177"/>
  <outline>
    <contour>
      <point x="1108" y="1120" type="line" name="sh02"/>
      <point x="737" y="-20" type="line" name="ab01"/>
      <point x="531" y="0" type="line"/>
      <point x="174" y="1100" type="line" name="sh04"/>
      <point x="357" y="1120" type="line" name="sh03"/>
      <point x="596" y="381" type="line"/>
      <point x="649" y="149" type="line" name="ah01"/>
      <point x="699" y="381" type="line"/>
      <point x="933" y="1100" type="line" name="sh01"/>
    </contour>
    <contour>
      <point x="1390" y="0" type="line" name="hr01"/>
      <point x="1200" y="0" type="line"/>
      <point x="1200" y="1100" type="line"/>
      <point x="1390" y="1120" type="line"/>
    </contour>
    <contour>
      <point x="1790" y="0" type="line" name="hr02"/>
      <point x="1600" y="0" type="line"/>
      <point x="1600" y="1100" type="line"/>
      <point x="1790" y="1120" type="line"/>
    </contour>
    <contour>
      <point x="2190" y="0" type="line" name="hr03"/>
      <point x="2000" y="0" type="line"/>
      <point x="2000" y="1100" type="line"/>
      <point x="2190" y="1120" type="line"/>
    </contour>
  </outline>
</glyph>
<glyph name="smallromannumeralnine" format="2">
  <advance width="1300"/>
  <unicode hex="2178"/>
  <outline>
    <contour>
      <point x="1062" y="0" type="line" name="sh01"/>
      <point x="783" y="392" type="line" name="fh01"/>
      <point x="738" y="510" type="line" name="ah02"/>
      <point x="693" y="392" type="line" name="fh02"/>
      <point x="405" y="0" type="line" name="sh02"/>
      <point x="206" y="0" type="line" name="fh03"/>
      <point x="628" y="588" type="line" name="fh04"/>
      <point x="260" y="1100" type="line" name="iv01"/>
      <point x="471" y="1120" type="line" name="sh03"/>
      <point x="726" y="771" type="line" name="fh05"/>
      <point x="765" y="660" type="line" name="ah01"/>
      <point x="803" y="771" type="line"/>
      <point x="1039" y="1100" type="line" name="sh04"/>
      <point x="1250" y="1120" type="line" name="av01"/>
      <point x="875" y="583" type="line" name="fh06"/>
      <point x="1287" y="0" type="line" name="fh07"/>
    </contour>
    <contour>
      <point x="190" y="0" type="line" name="hr01"/>
      <point x="0" y="0" type="line"/>
      <point x="0" y="1100" type="line"/>
      <point x="190" y="1120" type="line"/>
    </contour>
  </outline>
</glyph>
<glyph name="minus" format="2">
  <advance width="1300"/>
  <unicode hex="2212"/>
  <outline>
    <contour>
      <point x="200" y="700" type="line" name="hr00"/>
      <point x="1100" y="700" type="line"/>
      <point x="1100" y="545" type="line"/>
      <point x="200" y="545" type="line"/>
    </contour>
  </outline>
</glyph>
<glyph name="minusplus" format="2">
  <advance width="1300"/>
  <unicode hex="2213"/>
  <outline>
    <contour>
      <point x="200" y="612" type="line"/>
      <point x="573" y="612" type="line"/>
      <point x="573" y="949" type="line"/>
      <point x="728" y="949" type="line"/>
      <point x="728" y="612" type="line"/>
      <point x="1100" y="612" type="line"/>
      <point x="1100" y="488" type="line"/>
      <point x="728" y="488" type="line"/>
      <point x="728" y="150" type="line"/>
      <point x="573" y="150" type="line"/>
      <point x="573" y="488" type="line"/>
      <point x="200" y="488" type="line"/>
    </contour>
    <contour>
      <point x="200" y="1200" type="line" name="hr01"/>
      <point x="1100" y="1200" type="line"/>
      <point x="1100" y="1060" type="line"/>
      <point x="200" y="1060" type="line"/>
    </contour>
  </outline>
</glyph>
<glyph name="ringoperator" format="2">
  <advance width="1300"/>
  <unicode hex="2218"/>
  <outline>
    <contour>
      <point x="600" y="917" type="qcurve" name="at01"/>
      <point x="656" y="917"/>
      <point x="754" y="875"/>
      <point x="827" y="801"/>
      <point x="869" y="703"/>
      <point x="869" y="647" type="qcurve" name="ah02"/>
      <point x="869" y="591"/>
      <point x="827" y="493"/>
      <point x="754" y="420"/>
      <point x="656" y="377"/>
      <point x="600" y="377" type="qcurve" name="av01"/>
      <point x="544" y="377"/>
      <point x="446" y="420"/>
      <point x="373" y="493"/>
      <point x="331" y="591"/>
      <point x="331" y="647" type="qcurve" name="ah01"/>
      <point x="331" y="703"/>
      <point x="373" y="801"/>
      <point x="446" y="875"/>
      <point x="544" y="917"/>
    </contour>
    <contour>
      <point x="600" y="488" type="qcurve" name="sv01"/>
      <point x="633" y="488"/>
      <point x="691" y="513"/>
      <point x="734" y="556"/>
      <point x="759" y="614"/>
      <point x="759" y="647" type="qcurve" name="sh01"/>
      <point x="759" y="680"/>
      <point x="734" y="738"/>
      <point x="691" y="781"/>
      <point x="633" y="806"/>
      <point x="600" y="806" type="qcurve" name="sv02"/>
      <point x="567" y="806"/>
      <point x="509" y="781"/>
      <point x="466" y="738"/>
      <point x="441" y="680"/>
      <point x="441" y="647" type="qcurve" name="sh02"/>
      <point x="441" y="614"/>
      <point x="466" y="556"/>
      <point x="509" y="513"/>
      <point x="567" y="488"/>
    </contour>
  </outline>
</glyph>
<glyph name="because" format="2">
  <advance width="1300"/>
  <unicode hex="2235"/>
  <outline>
    <contour>
      <point x="-364" y="1040" type="qcurve" name="ah01"/>
      <point x="-364" y="1074"/>
      <point x="-338" y="1134"/>
      <point x="-293" y="1179"/>
      <point x="-234" y="1205"/>
      <point x="-200" y="1205" type="qcurve" name="av01"/>
      <point x="-166" y="1205"/>
      <point x="-106" y="1179"/>
      <point x="-61" y="1134"/>
      <point x="-35" y="1074"/>
      <point x="-35" y="1040" type="qcurve" name="ah02"/>
      <point x="-35" y="1006"/>
      <point x="-61" y="945"/>
      <point x="-105" y="900"/>
      <point x="-164" y="873"/>
      <point x="-198" y="873" type="qcurve" name="ab01"/>
      <point x="-232" y="873"/>
      <point x="-293" y="900"/>
      <point x="-338" y="945"/>
      <point x="-364" y="1006"/>
    </contour>
    <contour>
      <point x="436" y="1040" type="qcurve" name="ah03"/>
      <point x="436" y="1074"/>
      <point x="462" y="1134"/>
      <point x="507" y="1179"/>
      <point x="566" y="1205"/>
      <point x="600" y="1205" type="qcurve" name="av02"/>
      <point x="634" y="1205"/>
      <point x="694" y="1179"/>
      <point x="739" y="1134"/>
      <point x="765" y="1074"/>
      <point x="765" y="1040" type="qcurve" name="ah04"/>
      <point x="765" y="1006"/>
      <point x="739" y="945"/>
      <point x="695" y="900"/>
      <point x="636" y="873"/>
      <point x="602" y="873" type="qcurve" name="ab02"/>
      <point x="568" y="873"/>
      <point x="507" y="900"/>
      <point x="462" y="945"/>
      <point x="436" y="1006"/>
    </contour>
    <contour>
      <point x="36" y="150" type="qcurve" name="ah05"/>
      <point x="36" y="184"/>
      <point x="62" y="244"/>
      <point x="107" y="289"/>
      <point x="166" y="315"/>
      <point x="200" y="315" type="qcurve" name="av03"/>
      <point x="234" y="315"/>
      <point x="294" y="289"/>
      <point x="339" y="244"/>
      <point x="365" y="184"/>
      <point x="365" y="150" type="qcurve" name="ah06"/>
      <point x="365" y="116"/>
      <point x="339" y="55"/>
      <point x="295" y="10"/>
      <point x="236" y="-17"/>
      <point x="202" y="-17" type="qcurve" name="ab03"/>
      <point x="168" y="-17"/>
      <point x="107" y="10"/>
      <point x="62" y="55"/>
      <point x="36" y="116"/>
    </contour>
  </outline>
</glyph>
<glyph name="asymptoticallyequal" format="2">
  <advance width="1300"/>
  <unicode hex="2243"/>
  <outline>
    <contour>
      <point x="200" y="400" type="line"/>
      <point x="1000" y="400" type="line" name="av01"/>
      <point x="1000" y="260" type="line" name="sv01"/>
      <point x="200" y="260" type="line" name="sv02"/>
    </contour>
    <contour>
      <point x="760" y="500" type="qcurve"/>
      <point x="725" y="500"/>
      <point x="663" y="525"/>
      <point x="606" y="563"/>
      <point x="553" y="607"/>
      <point x="502" y="645"/>
      <point x="451" y="670"/>
      <point x="425" y="670" type="qcurve"/>
      <point x="394" y="670"/>
      <point x="339" y="655"/>
      <point x="285" y="627"/>
      <point x="230" y="586"/>
      <point x="200" y="560" type="qcurve"/>
      <point x="200" y="660" type="line"/>
      <point x="220" y="688"/>
      <point x="266" y="738"/>
      <point x="324" y="777"/>
      <point x="395" y="800"/>
      <point x="440" y="800" type="qcurve"/>
      <point x="492" y="800"/>
      <point x="581" y="747"/>
      <point x="661" y="683"/>
      <point x="736" y="630"/>
      <point x="775" y="630" type="qcurve"/>
      <point x="836" y="630"/>
      <point x="940" y="687"/>
      <point x="1000" y="740" type="qcurve"/>
      <point x="1000" y="640" type="line"/>
      <point x="980" y="612"/>
      <point x="934" y="562"/>
      <point x="876" y="523"/>
      <point x="805" y="500"/>
    </contour>
  </outline>
</glyph>
<glyph name="equivalence" format="2">
  <advance width="1300"/>
  <unicode hex="2261"/>
  <outline>
    <contour>
      <point x="200" y="600" type="line"/>
      <point x="1000" y="600" type="line"/>
      <point x="1000" y="460" type="line"/>
      <point x="200" y="460" type="line"/>
    </contour>
    <contour>
      <point x="200" y="300" type="line"/>
      <point x="1000" y="300" type="line"/>
      <point x="1000" y="160" type="line"/>
      <point x="200" y="160" type="line"/>
    </contour>
    <contour>
      <point x="200" y="900" type="line"/>
      <point x="1000" y="900" type="line" name="mv01"/>
      <point x="1000" y="760" type="line"/>
      <point x="200" y="760" type="line"/>
    </contour>
  </outline>
</glyph>
<glyph name="greaterequal" format="2">
  <advance width="1300"/>
  <unicode hex="2265"/>
  <outline>
    <contour>
      <point x="200" y="135" type="line" name="mh01"/>
      <point x="1100" y="135" type="line"/>
      <point x="1080" y="0" type="line"/>
      <point x="200" y="0" type="line"/>
    </contour>
    <contour>
      <point x="1102" y="756" type="line"/>
      <point x="1102" y="588" type="line"/>
      <point x="202" y="223" type="line" name="mv01"/>
      <point x="202" y="363" type="line"/>
      <point x="890" y="654" type="line"/>
      <point x="967" y="670" type="line"/>
      <point x="889" y="686" type="line"/>
      <point x="202" y="979" type="line"/>
      <point x="202" y="1119" type="line"/>
    </contour>
  </outline>
</glyph>
<glyph name="blackcircledone" format="2">
  <advance width="1300"/>
  <unicode hex="278A"/>
  <outline>
    <contour>
      <point x="50" y="750" type="qcurve" name="ah01"/>
      <point x="50" y="885"/>
      <point x="136" y="1138"/>
      <point x="294" y="1334"/>
      <point x="515" y="1452"/>
      <point x="650" y="1452" type="qcurve" name="av01"/>
      <point x="785" y="1452"/>
      <point x="1006" y="1334"/>
      <point x="1164" y="1138"/>
      <point x="1250" y="885"/>
      <point x="1250" y="750" type="qcurve" name="ah02"/>
      <point x="1250" y="615"/>
      <point x="1164" y="362"/>
      <point x="1006" y="166"/>
      <point x="785" y="48"/>
      <point x="650" y="48" type="qcurve" name="av02"/>
      <point x="515" y="48"/>
      <point x="294" y="166"/>
      <point x="136" y="362"/>
      <point x="50" y="615"/>
    </contour>
    <contour>
      <point x="937" y="320" type="line"/>
      <point x="937" y="416" type="line"/>
      <point x="730" y="416" type="line"/>
      <point x="730" y="1220" type="line"/>
      <point x="640" y="1232" type="line"/>
      <point x="365" y="980" type="line"/>
      <point x="430" y="907" type="line"/>
      <point x="557" y="1020" type="line"/>
      <point x="639" y="1132" type="line"/>
      <point x="604" y="996" type="line"/>
      <point x="604" y="416" type="line"/>
      <point x="397" y="416" type="line"/>
      <point x="397" y="320" type="line"/>
    </contour>
  </outline>
</glyph>
<glyph name="blackcircledfour" format="2">
  <advance width="1300"/>
  <unicode hex="278D"/>
  <outline>
    <contour>
      <point x="50" y="750" type="qcurve" name="ah01"/>
      <point x="50" y="885"/>
      <point x="136" y="1138"/>
      <point x="294" y="1334"/>
      <point x="515" y="1452"/>
      <point x="650" y="1452" type="qcurve" name="av01"/>
      <point x="785" y="1452"/>
      <point x="1006" y="1334"/>
      <point x="1164" y="1138"/>
      <point x="1250" y="885"/>
      <point x="1250" y="750" type="qcurve" name="ah02"/>
      <point x="1250" y="615"/>
      <point x="1164" y="362"/>
      <point x="1006" y="166"/>
      <point x="785" y="48"/>
      <point x="650" y="48" type="qcurve" name="av02"/>
      <point x="515" y="48"/>
      <point x="294" y="166"/>
      <point x="136" y="362"/>
      <point x="50" y="615"/>
    </contour>
    <contour>
      <point x="945" y="576" type="line"/>
      <point x="828" y="576" type="line"/>
      <point x="828" y="810" type="line"/>
      <point x="702" y="820" type="line"/>
      <point x="702" y="576" type="line"/>
      <point x="444" y="576" type="line"/>
      <point x="499" y="660" type="line"/>
      <point x="748" y="1200" type="line"/>
      <point x="635" y="1212" type="line"/>
      <point x="345" y="583" type="line"/>
      <point x="345" y="480" type="line"/>
      <point x="702" y="480" type="line"/>
      <point x="702" y="300" type="line"/>
      <point x="828" y="300" type="line"/>
      <point x="828" y="480" type="line"/>
      <point x="936" y="480" type="line"/>
    </contour>
  </outline>
</glyph>
<glyph name="blackcircledseven" format="2">
  <advance width="1300"/>
  <unicode hex="2790"/>
  <outline>
    <contour>
      <point x="50" y="750" type="qcurve" name="ah01"/>
      <point x="50" y="885"/>
      <point x="136" y="1138"/>
      <point x="294" y="1334"/>
      <point x="515" y="1452"/>
      <point x="650" y="1452" type="qcurve" name="av01"/>
      <point x="785" y="1452"/>
      <point x="1006" y="1334"/>
      <point x="1164" y="1138"/>
      <point x="1250" y="885"/>
      <point x="1250" y="750" type="qcurve" name="ah02"/>
      <point x="1250" y="615"/>
      <point x="1164" y="362"/>
      <point x="1006" y="166"/>
      <point x="785" y="48"/>
      <point x="650" y="48" type="qcurve" name="av02"/>
      <point x="515" y="48"/>
      <point x="294" y="166"/>
      <point x="136" y="362"/>
      <point x="50" y="615"/>
    </contour>
    <contour>
      <point x="384" y="1074" type="line"/>
      <point x="817" y="1074" type="line"/>
      <point x="817" y="1056"/>
      <point x="784" y="994"/>
      <point x="733" y="910"/>
      <point x="669" y="808"/>
      <point x="609" y="694"/>
      <point x="558" y="569"/>
      <point x="544" y="505" type="qcurve"/>
      <point x="539" y="482"/>
      <point x="533" y="416"/>
      <point x="531" y="349"/>
      <point x="530" y="288"/>
      <point x="530" y="270" type="qcurve"/>
      <point x="653" y="270" type="line"/>
      <point x="653" y="290"/>
      <point x="653" y="339"/>
      <point x="655" y="391"/>
      <point x="658" y="443"/>
      <point x="661" y="467" type="qcurve"/>
      <point x="667" y="524"/>
      <point x="715" y="647"/>
      <point x="780" y="769"/>
      <point x="851" y="884"/>
      <point x="911" y="985"/>
      <point x="950" y="1066"/>
      <point x="950" y="1092" type="qcurve"/>
      <point x="950" y="1170" type="line"/>
      <point x="384" y="1170" type="line"/>
    </contour>
  </outline>
</glyph>
<glyph name="zero.1" format="2">
  <advance width="1300"/>
  <unicode hex="E070"/>
  <outline>
    <contour>
      <point x="651" y="-17" type="curve" smooth="yes"/>
      <point x="1021" y="-17"/>
      <point x="1161" y="390"/>
      <point x="1161" y="750" type="curve" smooth="yes"/>
      <point x="1161" y="1100"/>
      <point x="991" y="1517"/>
      <point x="651" y="1517" type="curve" smooth="yes"/>
      <point x="281" y="1517"/>
      <point x="141" y="1110"/>
      <point x="141" y="750" type="curve" smooth="yes"/>
      <point x="141" y="400"/>
      <point x="311" y="-17"/>
    </contour>
    <contour>
      <point x="659" y="157" type="curve" smooth="yes"/>
      <point x="560" y="157"/>
      <point x="495" y="201"/>
      <point x="448" y="277" type="curve"/>
      <point x="969" y="1182" type="line"/>
      <point x="939" y="965" type="line"/>
      <point x="952" y="867"/>
      <point x="957" y="797"/>
      <point x="957" y="707" type="curve" smooth="yes"/>
      <point x="957" y="456"/>
      <point x="906" y="157"/>
    </contour>
    <contour>
      <point x="643" y="1341" type="curve" smooth="yes"/>
      <point x="739" y="1341"/>
      <point x="806" y="1297"/>
      <point x="853" y="1221" type="curve"/>
      <point x="334" y="320" type="line"/>
      <point x="364" y="532" type="line"/>
      <point x="349" y="631"/>
      <point x="345" y="702"/>
      <point x="345" y="793" type="curve" smooth="yes"/>
      <point x="345" y="1045"/>
      <point x="396" y="1341"/>
    </contour>
  </outline>
</glyph>
<glyph name="zero.2" format="2">
  <advance width="1300"/>
  <unicode hex="E071"/>
  <outline>
    <contour>
      <point x="651" y="-17" type="curve" smooth="yes"/>
      <point x="1021" y="-17"/>
      <point x="1161" y="390"/>
      <point x="1161" y="750" type="curve" smooth="yes"/>
      <point x="1161" y="1100"/>
      <point x="991" y="1517"/>
      <point x="651" y="1517" type="curve" smooth="yes"/>
      <point x="281" y="1517"/>
      <point x="141" y="1110"/>
      <point x="141" y="750" type="curve" smooth="yes"/>
      <point x="141" y="400"/>
      <point x="311" y="-17"/>
    </contour>
    <contour>
      <point x="348" y="793" type="curve" smooth="yes"/>
      <point x="348" y="1041"/>
      <point x="399" y="1341"/>
      <point x="643" y="1341" type="curve" smooth="yes"/>
      <point x="915" y="1341"/>
      <point x="954" y="938"/>
      <point x="954" y="707" type="curve" smooth="yes"/>
      <point x="954" y="459"/>
      <point x="903" y="158"/>
      <point x="659" y="158" type="curve" smooth="yes"/>
      <point x="387" y="158"/>
      <point x="348" y="562"/>
    </contour>
  </outline>
</glyph>
